solid OpenSCAD_Model
  facet normal -0.994516 -0.104585 0
    outer loop
      vertex -65 -50 0
      vertex -64.672 -53.119 0
      vertex -65 -50 20
    endloop
  endfacet
  facet normal -0.994516 -0.104585 0
    outer loop
      vertex -65 -50 20
      vertex -64.672 -53.119 0
      vertex -64.672 -53.119 20
    endloop
  endfacet
  facet normal 0 0 -1
    outer loop
      vertex -65 -50 0
      vertex -64.672 -46.881 0
      vertex -64.672 -53.119 0
    endloop
  endfacet
  facet normal 0 0 -1
    outer loop
      vertex -64.672 -53.119 0
      vertex -64.672 -46.881 0
      vertex -63.703 -43.899 0
    endloop
  endfacet
  facet normal 0 0 -1
    outer loop
      vertex -64.672 -53.119 0
      vertex -63.703 -43.899 0
      vertex -13.7036 56.0999 0
    endloop
  endfacet
  facet normal 0 0 -1
    outer loop
      vertex -13.7036 56.0999 0
      vertex -13.7032 56.101 0
      vertex -12.1353 58.8168 0
    endloop
  endfacet
  facet normal 0 0 -1
    outer loop
      vertex -13.7036 56.0999 0
      vertex -12.1353 58.8168 0
      vertex -64.672 -53.119 0
    endloop
  endfacet
  facet normal 0 0 -1
    outer loop
      vertex -64.672 -53.119 0
      vertex -12.1353 58.8168 0
      vertex -10.037 61.1472 0
    endloop
  endfacet
  facet normal 0 0 -1
    outer loop
      vertex -64.672 -53.119 0
      vertex -10.037 61.1472 0
      vertex -7.5 62.9904 0
    endloop
  endfacet
  facet normal 0 0 -1
    outer loop
      vertex -64.672 -53.119 0
      vertex -7.5 62.9904 0
      vertex -4.89773 64.149 0
    endloop
  endfacet
  facet normal 0 0 -1
    outer loop
      vertex -64.672 -53.119 0
      vertex -4.89773 64.149 0
      vertex -4.635 64.266 0
    endloop
  endfacet
  facet normal 0 0 -1
    outer loop
      vertex -64.672 -53.119 0
      vertex -4.635 64.266 0
      vertex -1.568 64.918 0
    endloop
  endfacet
  facet normal 0 0 -1
    outer loop
      vertex -64.672 -53.119 0
      vertex -1.568 64.918 0
      vertex 1.568 64.918 0
    endloop
  endfacet
  facet normal 0 0 -1
    outer loop
      vertex -64.672 -53.119 0
      vertex 1.568 64.918 0
      vertex 4.635 64.266 0
    endloop
  endfacet
  facet normal 0 0 -1
    outer loop
      vertex -64.672 -53.119 0
      vertex 4.635 64.266 0
      vertex 7.5 62.99 0
    endloop
  endfacet
  facet normal 0 0 -1
    outer loop
      vertex -64.672 -53.119 0
      vertex 7.5 62.99 0
      vertex 10.037 61.147 0
    endloop
  endfacet
  facet normal 0 0 -1
    outer loop
      vertex -64.672 -53.119 0
      vertex 10.037 61.147 0
      vertex 12.135 58.817 0
    endloop
  endfacet
  facet normal 0 0 -1
    outer loop
      vertex -64.672 -53.119 0
      vertex 12.135 58.817 0
      vertex 13.703 56.101 0
    endloop
  endfacet
  facet normal 0 0 -1
    outer loop
      vertex 0 16.493 0
      vertex 13.703 56.101 0
      vertex 63.7016 -43.8963 0
    endloop
  endfacet
  facet normal 0 0 -1
    outer loop
      vertex 36.2968 -56.101 0
      vertex 63.7032 -56.101 0
      vertex 62.1353 -58.8168 0
    endloop
  endfacet
  facet normal 0 0 -1
    outer loop
      vertex 37.8647 -58.8168 0
      vertex 62.1353 -58.8168 0
      vertex 60.037 -61.1472 0
    endloop
  endfacet
  facet normal 0 0 -1
    outer loop
      vertex 39.963 -61.1472 0
      vertex 60.037 -61.1472 0
      vertex 57.5 -62.9904 0
    endloop
  endfacet
  facet normal 0 0 -1
    outer loop
      vertex 42.5 -62.9904 0
      vertex 57.5 -62.9904 0
      vertex 54.8977 -64.149 0
    endloop
  endfacet
  facet normal 0 0 -1
    outer loop
      vertex 45.365 -64.266 0
      vertex 54.635 -64.266 0
      vertex 51.568 -64.918 0
    endloop
  endfacet
  facet normal 0 0 -1
    outer loop
      vertex 42.5 -62.9904 0
      vertex 54.635 -64.266 0
      vertex 45.1023 -64.149 0
    endloop
  endfacet
  facet normal 0 0 -1
    outer loop
      vertex 45.1023 -64.149 0
      vertex 54.635 -64.266 0
      vertex 45.365 -64.266 0
    endloop
  endfacet
  facet normal 0 0 -1
    outer loop
      vertex 42.5 -62.9904 0
      vertex 54.8977 -64.149 0
      vertex 54.635 -64.266 0
    endloop
  endfacet
  facet normal 0 0 -1
    outer loop
      vertex 0 16.493 0
      vertex 64.6722 -46.8813 0
      vertex 65 -50 0
    endloop
  endfacet
  facet normal 0 0 -1
    outer loop
      vertex 39.963 -61.1472 0
      vertex 57.5 -62.9904 0
      vertex 42.5 -62.9904 0
    endloop
  endfacet
  facet normal 0 0 -1
    outer loop
      vertex 37.8647 -58.8168 0
      vertex 60.037 -61.1472 0
      vertex 39.963 -61.1472 0
    endloop
  endfacet
  facet normal 0 0 -1
    outer loop
      vertex 0 16.493 0
      vertex 63.7032 -43.8989 0
      vertex 64.6722 -46.8813 0
    endloop
  endfacet
  facet normal 0 0 -1
    outer loop
      vertex 36.2968 -56.101 0
      vertex 62.1353 -58.8168 0
      vertex 37.8647 -58.8168 0
    endloop
  endfacet
  facet normal 0 0 -1
    outer loop
      vertex 36.2964 -56.0999 0
      vertex 63.7032 -56.101 0
      vertex 36.2968 -56.101 0
    endloop
  endfacet
  facet normal 0 0 -1
    outer loop
      vertex 0 16.493 0
      vertex 63.7016 -43.8963 0
      vertex 63.7032 -43.8989 0
    endloop
  endfacet
  facet normal 0 0 -1
    outer loop
      vertex -64.672 -53.119 0
      vertex 13.703 56.101 0
      vertex 0 16.493 0
    endloop
  endfacet
  facet normal 0 0 -1
    outer loop
      vertex -36.297 -56.101 0
      vertex -64.672 -53.119 0
      vertex 0 16.493 0
    endloop
  endfacet
  facet normal 0 0 -1
    outer loop
      vertex -64.672 -53.119 0
      vertex -36.297 -56.101 0
      vertex -37.865 -58.817 0
    endloop
  endfacet
  facet normal 0 0 -1
    outer loop
      vertex -64.672 -53.119 0
      vertex -37.865 -58.817 0
      vertex -39.963 -61.147 0
    endloop
  endfacet
  facet normal 0 0 -1
    outer loop
      vertex -64.672 -53.119 0
      vertex -39.963 -61.147 0
      vertex -42.5 -62.99 0
    endloop
  endfacet
  facet normal 0 0 -1
    outer loop
      vertex -64.672 -53.119 0
      vertex -42.5 -62.99 0
      vertex -45.365 -64.266 0
    endloop
  endfacet
  facet normal 0 0 -1
    outer loop
      vertex -64.672 -53.119 0
      vertex -45.365 -64.266 0
      vertex -48.432 -64.918 0
    endloop
  endfacet
  facet normal 0 0 -1
    outer loop
      vertex -64.672 -53.119 0
      vertex -48.432 -64.918 0
      vertex -51.568 -64.918 0
    endloop
  endfacet
  facet normal 0 0 -1
    outer loop
      vertex -64.672 -53.119 0
      vertex -51.568 -64.918 0
      vertex -54.635 -64.266 0
    endloop
  endfacet
  facet normal 0 0 -1
    outer loop
      vertex -64.672 -53.119 0
      vertex -54.635 -64.266 0
      vertex -57.5 -62.99 0
    endloop
  endfacet
  facet normal 0 0 -1
    outer loop
      vertex -64.672 -53.119 0
      vertex -57.5 -62.99 0
      vertex -60.037 -61.147 0
    endloop
  endfacet
  facet normal 0 0 -1
    outer loop
      vertex -64.672 -53.119 0
      vertex -60.037 -61.147 0
      vertex -62.135 -58.817 0
    endloop
  endfacet
  facet normal 0 0 -1
    outer loop
      vertex -64.672 -53.119 0
      vertex -62.135 -58.817 0
      vertex -63.703 -56.101 0
    endloop
  endfacet
  facet normal 0 0 -1
    outer loop
      vertex 45.365 -64.266 0
      vertex 51.568 -64.918 0
      vertex 48.432 -64.918 0
    endloop
  endfacet
  facet normal 0 0 -1
    outer loop
      vertex 0 16.493 0
      vertex 65 -50 0
      vertex 64.6722 -53.1187 0
    endloop
  endfacet
  facet normal 0 0 -1
    outer loop
      vertex 0 16.493 0
      vertex 64.6722 -53.1187 0
      vertex 63.7032 -56.101 0
    endloop
  endfacet
  facet normal 0 0 -1
    outer loop
      vertex 0 16.493 0
      vertex 63.7032 -56.101 0
      vertex 36.2964 -56.0999 0
    endloop
  endfacet
  facet normal -0.994516 0.104585 0
    outer loop
      vertex -65 -50 0
      vertex -65 -50 20
      vertex -64.672 -46.881 0
    endloop
  endfacet
  facet normal -0.994516 0.104585 0
    outer loop
      vertex -64.672 -46.881 0
      vertex -65 -50 20
      vertex -64.672 -46.881 20
    endloop
  endfacet
  facet normal 0 0 1
    outer loop
      vertex -64.672 -46.881 20
      vertex -65 -50 20
      vertex -64.672 -53.119 20
    endloop
  endfacet
  facet normal 0 0 1
    outer loop
      vertex -62.135 -58.817 20
      vertex -64.672 -46.881 20
      vertex -63.703 -56.101 20
    endloop
  endfacet
  facet normal 0 0 1
    outer loop
      vertex -63.703 -56.101 20
      vertex -64.672 -46.881 20
      vertex -64.672 -53.119 20
    endloop
  endfacet
  facet normal 0 0 1
    outer loop
      vertex -60.037 -61.147 20
      vertex -64.672 -46.881 20
      vertex -62.135 -58.817 20
    endloop
  endfacet
  facet normal 0 0 1
    outer loop
      vertex -57.5 -62.99 20
      vertex -64.672 -46.881 20
      vertex -60.037 -61.147 20
    endloop
  endfacet
  facet normal 0 0 1
    outer loop
      vertex -54.635 -64.266 20
      vertex -64.672 -46.881 20
      vertex -57.5 -62.99 20
    endloop
  endfacet
  facet normal 0 0 1
    outer loop
      vertex -51.568 -64.918 20
      vertex -64.672 -46.881 20
      vertex -54.635 -64.266 20
    endloop
  endfacet
  facet normal 0 0 1
    outer loop
      vertex -56.534 -56.1893 20
      vertex -64.672 -46.881 20
      vertex -51.568 -64.918 20
    endloop
  endfacet
  facet normal 0 0 1
    outer loop
      vertex -57.7117 -54.64 20
      vertex -58.5289 -52.8737 20
      vertex -64.672 -46.881 20
    endloop
  endfacet
  facet normal 0 0 1
    outer loop
      vertex -41.8318 -46.221 20
      vertex -41.2104 -48.0653 20
      vertex -36.297 -56.101 20
    endloop
  endfacet
  facet normal 0 0 1
    outer loop
      vertex -42.8352 -55.4466 20
      vertex -44.1735 -56.8595 20
      vertex -37.865 -58.817 20
    endloop
  endfacet
  facet normal 0 0 1
    outer loop
      vertex -1 35.0822 20
      vertex -64.672 -46.881 20
      vertex 0 16.493 20
    endloop
  endfacet
  facet normal 0 0 1
    outer loop
      vertex 35.3278 -53.1187 20
      vertex 0 16.493 20
      vertex 36.2964 -56.0999 20
    endloop
  endfacet
  facet normal 0 0 1
    outer loop
      vertex 35 -50 20
      vertex 0 16.493 20
      vertex 35.3278 -53.1187 20
    endloop
  endfacet
  facet normal 0 0 1
    outer loop
      vertex 35.3278 -46.8813 20
      vertex 0 16.493 20
      vertex 35 -50 20
    endloop
  endfacet
  facet normal 0 0 1
    outer loop
      vertex 36.2968 -43.8989 20
      vertex 0 16.493 20
      vertex 35.3278 -46.8813 20
    endloop
  endfacet
  facet normal 0 0 1
    outer loop
      vertex 37.8647 -41.1832 20
      vertex 0 16.493 20
      vertex 36.2968 -43.8989 20
    endloop
  endfacet
  facet normal 0 0 1
    outer loop
      vertex 39.963 -38.8528 20
      vertex 0 16.493 20
      vertex 37.8647 -41.1832 20
    endloop
  endfacet
  facet normal 0 0 1
    outer loop
      vertex 42.5 -37.0096 20
      vertex 0 16.493 20
      vertex 39.963 -38.8528 20
    endloop
  endfacet
  facet normal 0 0 1
    outer loop
      vertex 45.3647 -35.7342 20
      vertex 0 16.493 20
      vertex 42.5 -37.0096 20
    endloop
  endfacet
  facet normal 0 0 1
    outer loop
      vertex 48.4321 -35.0822 20
      vertex 0 16.493 20
      vertex 45.3647 -35.7342 20
    endloop
  endfacet
  facet normal 0 0 1
    outer loop
      vertex 51.5679 -35.0822 20
      vertex 0 16.493 20
      vertex 48.4321 -35.0822 20
    endloop
  endfacet
  facet normal 0 0 1
    outer loop
      vertex 54.6353 -35.7342 20
      vertex 0 16.493 20
      vertex 51.5679 -35.0822 20
    endloop
  endfacet
  facet normal 0 0 1
    outer loop
      vertex 57.5 -37.0096 20
      vertex 0 16.493 20
      vertex 54.6353 -35.7342 20
    endloop
  endfacet
  facet normal 0 0 1
    outer loop
      vertex 60.037 -38.8528 20
      vertex 0 16.493 20
      vertex 57.5 -37.0096 20
    endloop
  endfacet
  facet normal 0 0 1
    outer loop
      vertex 13.703 56.101 20
      vertex 0 16.493 20
      vertex 60.037 -38.8528 20
    endloop
  endfacet
  facet normal 0 0 1
    outer loop
      vertex 13.703 56.101 20
      vertex 60.037 -38.8528 20
      vertex 62.1353 -41.1832 20
    endloop
  endfacet
  facet normal 0 0 1
    outer loop
      vertex 13.703 56.101 20
      vertex 62.1353 -41.1832 20
      vertex 63.7016 -43.8963 20
    endloop
  endfacet
  facet normal 0 0 1
    outer loop
      vertex -12.1353 41.1832 20
      vertex -13.7032 43.8989 20
      vertex -64.672 -46.881 20
    endloop
  endfacet
  facet normal 0 0 1
    outer loop
      vertex -7.5 37.0096 20
      vertex -10.037 38.8528 20
      vertex -64.672 -46.881 20
    endloop
  endfacet
  facet normal 0 0 1
    outer loop
      vertex -4.89773 64.149 20
      vertex -4.63525 64.2658 20
      vertex -4.635 64.266 20
    endloop
  endfacet
  facet normal 0 0 1
    outer loop
      vertex -1.568 64.918 20
      vertex -1.56793 64.9178 20
      vertex 1.568 64.918 20
    endloop
  endfacet
  facet normal 0 0 1
    outer loop
      vertex -1.56793 35.0822 20
      vertex -4.63525 35.7342 20
      vertex -64.672 -46.881 20
    endloop
  endfacet
  facet normal 0 0 1
    outer loop
      vertex -1.56793 64.9178 20
      vertex -1 64.9178 20
      vertex 1.568 64.918 20
    endloop
  endfacet
  facet normal 0 0 1
    outer loop
      vertex 13.703 56.101 20
      vertex -1 35.0822 20
      vertex 0 16.493 20
    endloop
  endfacet
  facet normal 0 0 1
    outer loop
      vertex -1.56793 35.0822 20
      vertex -64.672 -46.881 20
      vertex -1 35.0822 20
    endloop
  endfacet
  facet normal 0 0 1
    outer loop
      vertex -58.5289 -52.8737 20
      vertex -58.9472 -50.9731 20
      vertex -64.672 -46.881 20
    endloop
  endfacet
  facet normal 0 0 1
    outer loop
      vertex -4.63525 35.7342 20
      vertex -7.5 37.0096 20
      vertex -64.672 -46.881 20
    endloop
  endfacet
  facet normal 0 0 1
    outer loop
      vertex -15 50 20
      vertex -64.672 -46.881 20
      vertex -14.6722 46.8813 20
    endloop
  endfacet
  facet normal 0 0 1
    outer loop
      vertex -14.6722 53.1187 20
      vertex -64.672 -46.881 20
      vertex -15 50 20
    endloop
  endfacet
  facet normal 0 0 1
    outer loop
      vertex -13.7036 56.0999 20
      vertex -64.672 -46.881 20
      vertex -14.6722 53.1187 20
    endloop
  endfacet
  facet normal 0 0 1
    outer loop
      vertex -63.703 -43.899 20
      vertex -64.672 -46.881 20
      vertex -13.7036 56.0999 20
    endloop
  endfacet
  facet normal 0 0 1
    outer loop
      vertex -49.5127 -58.9868 20
      vertex -51.456 -58.8814 20
      vertex -45.365 -64.266 20
    endloop
  endfacet
  facet normal 0 0 1
    outer loop
      vertex -44.1735 -56.8595 20
      vertex -45.7843 -57.9516 20
      vertex -39.963 -61.147 20
    endloop
  endfacet
  facet normal 0 0 1
    outer loop
      vertex -56.534 -43.8107 20
      vertex -55.0507 -42.5508 20
      vertex 0 16.493 20
    endloop
  endfacet
  facet normal 0 0 1
    outer loop
      vertex -55.0507 -57.4492 20
      vertex -56.534 -56.1893 20
      vertex -48.432 -64.918 20
    endloop
  endfacet
  facet normal 0 0 1
    outer loop
      vertex -57.7117 -45.36 20
      vertex -64.672 -46.881 20
      vertex -58.5289 -47.1263 20
    endloop
  endfacet
  facet normal 0 0 1
    outer loop
      vertex -56.534 -43.8107 20
      vertex -64.672 -46.881 20
      vertex -57.7117 -45.36 20
    endloop
  endfacet
  facet normal 0 0 1
    outer loop
      vertex -55.0507 -42.5508 20
      vertex -53.3312 -41.6392 20
      vertex 0 16.493 20
    endloop
  endfacet
  facet normal 0 0 1
    outer loop
      vertex 0 16.493 20
      vertex -64.672 -46.881 20
      vertex -56.534 -43.8107 20
    endloop
  endfacet
  facet normal 0 0 1
    outer loop
      vertex -41.8318 -53.779 20
      vertex -42.8352 -55.4466 20
      vertex -36.297 -56.101 20
    endloop
  endfacet
  facet normal 0 0 1
    outer loop
      vertex 0 16.493 20
      vertex -53.3312 -41.6392 20
      vertex -51.456 -41.1186 20
    endloop
  endfacet
  facet normal 0 0 1
    outer loop
      vertex 0 16.493 20
      vertex -51.456 -41.1186 20
      vertex -49.5127 -41.0132 20
    endloop
  endfacet
  facet normal 0 0 1
    outer loop
      vertex 0 16.493 20
      vertex -49.5127 -41.0132 20
      vertex -47.5922 -41.328 20
    endloop
  endfacet
  facet normal 0 0 1
    outer loop
      vertex 0 16.493 20
      vertex -47.5922 -41.328 20
      vertex -45.7843 -42.0484 20
    endloop
  endfacet
  facet normal 0 0 1
    outer loop
      vertex 0 16.493 20
      vertex -45.7843 -42.0484 20
      vertex -44.1735 -43.1405 20
    endloop
  endfacet
  facet normal 0 0 1
    outer loop
      vertex -41.2104 -48.0653 20
      vertex -41 -50 20
      vertex -36.297 -56.101 20
    endloop
  endfacet
  facet normal 0 0 1
    outer loop
      vertex 0 16.493 20
      vertex -44.1735 -43.1405 20
      vertex -42.8352 -44.5534 20
    endloop
  endfacet
  facet normal 0 0 1
    outer loop
      vertex 0 16.493 20
      vertex -41.8318 -46.221 20
      vertex -36.297 -56.101 20
    endloop
  endfacet
  facet normal 0 0 1
    outer loop
      vertex 0 16.493 20
      vertex -42.8352 -44.5534 20
      vertex -41.8318 -46.221 20
    endloop
  endfacet
  facet normal 0 0 1
    outer loop
      vertex -41.2104 -51.9347 20
      vertex -41.8318 -53.779 20
      vertex -36.297 -56.101 20
    endloop
  endfacet
  facet normal 0 0 1
    outer loop
      vertex -36.297 -56.101 20
      vertex -42.8352 -55.4466 20
      vertex -37.865 -58.817 20
    endloop
  endfacet
  facet normal 0 0 1
    outer loop
      vertex -37.865 -58.817 20
      vertex -44.1735 -56.8595 20
      vertex -39.963 -61.147 20
    endloop
  endfacet
  facet normal 0 0 1
    outer loop
      vertex -58.9472 -49.0269 20
      vertex -58.5289 -47.1263 20
      vertex -64.672 -46.881 20
    endloop
  endfacet
  facet normal 0 0 1
    outer loop
      vertex -47.5922 -58.6719 20
      vertex -49.5127 -58.9868 20
      vertex -42.5 -62.99 20
    endloop
  endfacet
  facet normal 0 0 1
    outer loop
      vertex -41 -50 20
      vertex -41.2104 -51.9347 20
      vertex -36.297 -56.101 20
    endloop
  endfacet
  facet normal 0 0 1
    outer loop
      vertex -39.963 -61.147 20
      vertex -47.5922 -58.6719 20
      vertex -42.5 -62.99 20
    endloop
  endfacet
  facet normal 0 0 1
    outer loop
      vertex -42.5 -62.99 20
      vertex -49.5127 -58.9868 20
      vertex -45.365 -64.266 20
    endloop
  endfacet
  facet normal 0 0 1
    outer loop
      vertex -45.7843 -57.9516 20
      vertex -47.5922 -58.6719 20
      vertex -39.963 -61.147 20
    endloop
  endfacet
  facet normal 0 0 1
    outer loop
      vertex -45.365 -64.266 20
      vertex -51.456 -58.8814 20
      vertex -48.432 -64.918 20
    endloop
  endfacet
  facet normal 0 0 1
    outer loop
      vertex -51.456 -58.8814 20
      vertex -53.3312 -58.3608 20
      vertex -48.432 -64.918 20
    endloop
  endfacet
  facet normal 0 0 1
    outer loop
      vertex -53.3312 -58.3608 20
      vertex -55.0507 -57.4492 20
      vertex -48.432 -64.918 20
    endloop
  endfacet
  facet normal 0 0 1
    outer loop
      vertex -48.432 -64.918 20
      vertex -56.534 -56.1893 20
      vertex -51.568 -64.918 20
    endloop
  endfacet
  facet normal 0 0 1
    outer loop
      vertex -57.7117 -54.64 20
      vertex -64.672 -46.881 20
      vertex -56.534 -56.1893 20
    endloop
  endfacet
  facet normal 0 0 1
    outer loop
      vertex -58.9472 -50.9731 20
      vertex -58.9472 -49.0269 20
      vertex -64.672 -46.881 20
    endloop
  endfacet
  facet normal 0 0 1
    outer loop
      vertex -4.63525 64.2658 20
      vertex -1.568 64.918 20
      vertex -4.635 64.266 20
    endloop
  endfacet
  facet normal 0 0 1
    outer loop
      vertex -4.63525 64.2658 20
      vertex -1.56793 64.9178 20
      vertex -1.568 64.918 20
    endloop
  endfacet
  facet normal 0 0 1
    outer loop
      vertex -10.037 38.8528 20
      vertex -12.1353 41.1832 20
      vertex -64.672 -46.881 20
    endloop
  endfacet
  facet normal 0 0 1
    outer loop
      vertex -13.7032 43.8989 20
      vertex -14.6722 46.8813 20
      vertex -64.672 -46.881 20
    endloop
  endfacet
  facet normal 0 0 1
    outer loop
      vertex -1 64.9178 20
      vertex 4.635 64.266 20
      vertex 1.568 64.918 20
    endloop
  endfacet
  facet normal 0 0 1
    outer loop
      vertex -1 64.9178 20
      vertex 7.5 62.99 20
      vertex 4.635 64.266 20
    endloop
  endfacet
  facet normal 0 0 1
    outer loop
      vertex -1 64.9178 20
      vertex 10.037 61.147 20
      vertex 7.5 62.99 20
    endloop
  endfacet
  facet normal 0 0 1
    outer loop
      vertex -1 64.9178 20
      vertex 12.135 58.817 20
      vertex 10.037 61.147 20
    endloop
  endfacet
  facet normal 0 0 1
    outer loop
      vertex -1 64.9178 20
      vertex 13.703 56.101 20
      vertex 12.135 58.817 20
    endloop
  endfacet
  facet normal 0 0 1
    outer loop
      vertex -1 64.9178 20
      vertex -1 35.0822 20
      vertex 13.703 56.101 20
    endloop
  endfacet
  facet normal -0.951048 -0.309043 0
    outer loop
      vertex -64.672 -53.119 0
      vertex -63.703 -56.101 0
      vertex -64.672 -53.119 20
    endloop
  endfacet
  facet normal -0.951048 -0.309043 0
    outer loop
      vertex -64.672 -53.119 20
      vertex -63.703 -56.101 0
      vertex -63.703 -56.101 20
    endloop
  endfacet
  facet normal -0.866037 -0.49998 0
    outer loop
      vertex -63.703 -56.101 0
      vertex -62.135 -58.817 0
      vertex -63.703 -56.101 20
    endloop
  endfacet
  facet normal -0.866037 -0.49998 0
    outer loop
      vertex -63.703 -56.101 20
      vertex -62.135 -58.817 0
      vertex -62.135 -58.817 20
    endloop
  endfacet
  facet normal -0.743136 -0.669141 0
    outer loop
      vertex -62.135 -58.817 0
      vertex -60.037 -61.147 0
      vertex -62.135 -58.817 20
    endloop
  endfacet
  facet normal -0.743136 -0.669141 0
    outer loop
      vertex -62.135 -58.817 20
      vertex -60.037 -61.147 0
      vertex -60.037 -61.147 20
    endloop
  endfacet
  facet normal -0.587735 -0.809053 0
    outer loop
      vertex -60.037 -61.147 20
      vertex -60.037 -61.147 0
      vertex -57.5 -62.99 0
    endloop
  endfacet
  facet normal -0.587735 -0.809053 0
    outer loop
      vertex -57.5 -62.99 20
      vertex -60.037 -61.147 20
      vertex -57.5 -62.99 0
    endloop
  endfacet
  facet normal -0.406848 -0.913496 0
    outer loop
      vertex -57.5 -62.99 20
      vertex -57.5 -62.99 0
      vertex -54.635 -64.266 0
    endloop
  endfacet
  facet normal -0.406848 -0.913496 0
    outer loop
      vertex -54.635 -64.266 20
      vertex -57.5 -62.99 20
      vertex -54.635 -64.266 0
    endloop
  endfacet
  facet normal -0.207939 -0.978142 0
    outer loop
      vertex -54.635 -64.266 20
      vertex -54.635 -64.266 0
      vertex -51.568 -64.918 0
    endloop
  endfacet
  facet normal -0.207939 -0.978142 0
    outer loop
      vertex -51.568 -64.918 20
      vertex -54.635 -64.266 20
      vertex -51.568 -64.918 0
    endloop
  endfacet
  facet normal 0 -1 0
    outer loop
      vertex -51.568 -64.918 20
      vertex -51.568 -64.918 0
      vertex -48.432 -64.918 0
    endloop
  endfacet
  facet normal 0 -1 0
    outer loop
      vertex -48.432 -64.918 20
      vertex -51.568 -64.918 20
      vertex -48.432 -64.918 0
    endloop
  endfacet
  facet normal 0.207939 -0.978142 0
    outer loop
      vertex -48.432 -64.918 20
      vertex -48.432 -64.918 0
      vertex -45.365 -64.266 0
    endloop
  endfacet
  facet normal 0.207939 -0.978142 0
    outer loop
      vertex -45.365 -64.266 20
      vertex -48.432 -64.918 20
      vertex -45.365 -64.266 0
    endloop
  endfacet
  facet normal 0.406848 -0.913496 0
    outer loop
      vertex -45.365 -64.266 20
      vertex -45.365 -64.266 0
      vertex -42.5 -62.99 0
    endloop
  endfacet
  facet normal 0.406848 -0.913496 0
    outer loop
      vertex -42.5 -62.99 20
      vertex -45.365 -64.266 20
      vertex -42.5 -62.99 0
    endloop
  endfacet
  facet normal 0.587735 -0.809053 0
    outer loop
      vertex -42.5 -62.99 20
      vertex -42.5 -62.99 0
      vertex -39.963 -61.147 0
    endloop
  endfacet
  facet normal 0.587735 -0.809053 0
    outer loop
      vertex -39.963 -61.147 20
      vertex -42.5 -62.99 20
      vertex -39.963 -61.147 0
    endloop
  endfacet
  facet normal 0.743136 -0.669141 0
    outer loop
      vertex -39.963 -61.147 20
      vertex -39.963 -61.147 0
      vertex -37.865 -58.817 0
    endloop
  endfacet
  facet normal 0.743136 -0.669141 0
    outer loop
      vertex -37.865 -58.817 20
      vertex -39.963 -61.147 20
      vertex -37.865 -58.817 0
    endloop
  endfacet
  facet normal 0.866037 -0.49998 0
    outer loop
      vertex -37.865 -58.817 20
      vertex -37.865 -58.817 0
      vertex -36.297 -56.101 0
    endloop
  endfacet
  facet normal 0.866037 -0.49998 0
    outer loop
      vertex -36.297 -56.101 20
      vertex -37.865 -58.817 20
      vertex -36.297 -56.101 0
    endloop
  endfacet
  facet normal 0.894427 -0.447214 0
    outer loop
      vertex -36.297 -56.101 20
      vertex -36.297 -56.101 0
      vertex 0 16.493 0
    endloop
  endfacet
  facet normal 0.894427 -0.447214 0
    outer loop
      vertex 0 16.493 20
      vertex -36.297 -56.101 20
      vertex 0 16.493 0
    endloop
  endfacet
  facet normal -0.894427 -0.447214 0
    outer loop
      vertex 0 16.493 0
      vertex 36.2964 -56.0999 0
      vertex 0 16.493 20
    endloop
  endfacet
  facet normal -0.894427 -0.447214 0
    outer loop
      vertex 0 16.493 20
      vertex 36.2964 -56.0999 0
      vertex 36.2964 -56.0999 20
    endloop
  endfacet
  facet normal -0.951057 -0.309017 0
    outer loop
      vertex 35.3278 -53.1187 20
      vertex 36.2964 -56.0999 20
      vertex 35.3278 -53.1187 70
    endloop
  endfacet
  facet normal -0.951057 -0.309017 0
    outer loop
      vertex 36.2968 -56.101 0
      vertex 36.2964 -56.0999 20
      vertex 36.2964 -56.0999 0
    endloop
  endfacet
  facet normal -0.951057 -0.309017 0
    outer loop
      vertex 36.2968 -56.101 70
      vertex 36.2964 -56.0999 20
      vertex 36.2968 -56.101 0
    endloop
  endfacet
  facet normal -0.951057 -0.309017 0
    outer loop
      vertex 35.3278 -53.1187 70
      vertex 36.2964 -56.0999 20
      vertex 36.2968 -56.101 70
    endloop
  endfacet
  facet normal -0.866025 -0.5 0
    outer loop
      vertex 36.2968 -56.101 0
      vertex 37.8647 -58.8168 0
      vertex 36.2968 -56.101 70
    endloop
  endfacet
  facet normal -0.866025 -0.5 0
    outer loop
      vertex 36.2968 -56.101 70
      vertex 37.8647 -58.8168 0
      vertex 37.8647 -58.8168 70
    endloop
  endfacet
  facet normal -0.743145 -0.669131 0
    outer loop
      vertex 37.8647 -58.8168 0
      vertex 39.963 -61.1472 0
      vertex 37.8647 -58.8168 70
    endloop
  endfacet
  facet normal -0.743145 -0.669131 0
    outer loop
      vertex 37.8647 -58.8168 70
      vertex 39.963 -61.1472 0
      vertex 39.963 -61.1472 70
    endloop
  endfacet
  facet normal -0.587785 -0.809017 0
    outer loop
      vertex 39.963 -61.1472 70
      vertex 39.963 -61.1472 0
      vertex 42.5 -62.9904 0
    endloop
  endfacet
  facet normal -0.587785 -0.809017 0
    outer loop
      vertex 42.5 -62.9904 70
      vertex 39.963 -61.1472 70
      vertex 42.5 -62.9904 0
    endloop
  endfacet
  facet normal -0.406737 -0.913545 0
    outer loop
      vertex 42.5 -62.9904 70
      vertex 42.5 -62.9904 0
      vertex 45.1023 -64.149 0
    endloop
  endfacet
  facet normal -0.406737 -0.913545 0
    outer loop
      vertex 45.3647 -64.2658 20
      vertex 42.5 -62.9904 70
      vertex 45.1023 -64.149 20
    endloop
  endfacet
  facet normal -0.406737 -0.913545 0
    outer loop
      vertex 45.1023 -64.149 20
      vertex 42.5 -62.9904 70
      vertex 45.1023 -64.149 0
    endloop
  endfacet
  facet normal -0.406737 -0.913545 0
    outer loop
      vertex 45.3647 -64.2658 70
      vertex 42.5 -62.9904 70
      vertex 45.3647 -64.2658 20
    endloop
  endfacet
  facet normal -0.406848 -0.913496 0
    outer loop
      vertex 45.1023 -64.149 20
      vertex 45.1023 -64.149 0
      vertex 45.365 -64.266 0
    endloop
  endfacet
  facet normal -0.406848 -0.913496 0
    outer loop
      vertex 45.365 -64.266 20
      vertex 45.1023 -64.149 20
      vertex 45.365 -64.266 0
    endloop
  endfacet
  facet normal -0.207939 -0.978142 0
    outer loop
      vertex 45.365 -64.266 20
      vertex 45.365 -64.266 0
      vertex 48.432 -64.918 0
    endloop
  endfacet
  facet normal -0.207939 -0.978142 0
    outer loop
      vertex 48.432 -64.918 20
      vertex 45.365 -64.266 20
      vertex 48.432 -64.918 0
    endloop
  endfacet
  facet normal 0 -1 0
    outer loop
      vertex 48.432 -64.918 20
      vertex 48.432 -64.918 0
      vertex 51.568 -64.918 0
    endloop
  endfacet
  facet normal 0 -1 0
    outer loop
      vertex 51.568 -64.918 20
      vertex 48.432 -64.918 20
      vertex 51.568 -64.918 0
    endloop
  endfacet
  facet normal 0.207939 -0.978142 0
    outer loop
      vertex 51.568 -64.918 20
      vertex 51.568 -64.918 0
      vertex 54.635 -64.266 0
    endloop
  endfacet
  facet normal 0.207939 -0.978142 0
    outer loop
      vertex 54.635 -64.266 20
      vertex 51.568 -64.918 20
      vertex 54.635 -64.266 0
    endloop
  endfacet
  facet normal 0.406848 -0.913496 0
    outer loop
      vertex 54.635 -64.266 20
      vertex 54.635 -64.266 0
      vertex 54.8977 -64.149 0
    endloop
  endfacet
  facet normal 0.406848 -0.913496 0
    outer loop
      vertex 54.8977 -64.149 20
      vertex 54.635 -64.266 20
      vertex 54.8977 -64.149 0
    endloop
  endfacet
  facet normal 0.406737 -0.913545 0
    outer loop
      vertex 54.6353 -64.2658 70
      vertex 54.6353 -64.2658 20
      vertex 54.8977 -64.149 20
    endloop
  endfacet
  facet normal 0.406737 -0.913545 0
    outer loop
      vertex 57.5 -62.9904 0
      vertex 54.6353 -64.2658 70
      vertex 54.8977 -64.149 20
    endloop
  endfacet
  facet normal 0.406737 -0.913545 0
    outer loop
      vertex 54.8977 -64.149 0
      vertex 57.5 -62.9904 0
      vertex 54.8977 -64.149 20
    endloop
  endfacet
  facet normal 0.406737 -0.913545 0
    outer loop
      vertex 57.5 -62.9904 0
      vertex 57.5 -62.9904 70
      vertex 54.6353 -64.2658 70
    endloop
  endfacet
  facet normal 0.587785 -0.809017 0
    outer loop
      vertex 57.5 -62.9904 70
      vertex 57.5 -62.9904 0
      vertex 60.037 -61.1472 0
    endloop
  endfacet
  facet normal 0.587785 -0.809017 0
    outer loop
      vertex 60.037 -61.1472 70
      vertex 57.5 -62.9904 70
      vertex 60.037 -61.1472 0
    endloop
  endfacet
  facet normal 0.743145 -0.669131 0
    outer loop
      vertex 60.037 -61.1472 70
      vertex 60.037 -61.1472 0
      vertex 62.1353 -58.8168 0
    endloop
  endfacet
  facet normal 0.743145 -0.669131 0
    outer loop
      vertex 62.1353 -58.8168 70
      vertex 60.037 -61.1472 70
      vertex 62.1353 -58.8168 0
    endloop
  endfacet
  facet normal 0.866025 -0.5 0
    outer loop
      vertex 62.1353 -58.8168 70
      vertex 62.1353 -58.8168 0
      vertex 63.7032 -56.101 0
    endloop
  endfacet
  facet normal 0.866025 -0.5 0
    outer loop
      vertex 63.7032 -56.101 70
      vertex 62.1353 -58.8168 70
      vertex 63.7032 -56.101 0
    endloop
  endfacet
  facet normal 0.951057 -0.309017 0
    outer loop
      vertex 63.7032 -56.101 70
      vertex 63.7032 -56.101 0
      vertex 64.6722 -53.1187 0
    endloop
  endfacet
  facet normal 0.951057 -0.309017 0
    outer loop
      vertex 64.6722 -53.1187 70
      vertex 63.7032 -56.101 70
      vertex 64.6722 -53.1187 0
    endloop
  endfacet
  facet normal 0.994522 -0.104528 0
    outer loop
      vertex 64.6722 -53.1187 70
      vertex 64.6722 -53.1187 0
      vertex 65 -50 0
    endloop
  endfacet
  facet normal 0.994522 -0.104528 0
    outer loop
      vertex 65 -50 70
      vertex 64.6722 -53.1187 70
      vertex 65 -50 0
    endloop
  endfacet
  facet normal 0.994522 0.104528 0
    outer loop
      vertex 65 -50 0
      vertex 64.6722 -46.8813 0
      vertex 64.6722 -46.8813 70
    endloop
  endfacet
  facet normal 0.994522 0.104528 0
    outer loop
      vertex 65 -50 70
      vertex 65 -50 0
      vertex 64.6722 -46.8813 70
    endloop
  endfacet
  facet normal 0.951057 0.309017 0
    outer loop
      vertex 64.6722 -46.8813 0
      vertex 63.7032 -43.8989 0
      vertex 63.7032 -43.8989 70
    endloop
  endfacet
  facet normal 0.951057 0.309017 0
    outer loop
      vertex 64.6722 -46.8813 70
      vertex 64.6722 -46.8813 0
      vertex 63.7032 -43.8989 70
    endloop
  endfacet
  facet normal 0.866025 0.5 0
    outer loop
      vertex 63.7016 -43.8963 20
      vertex 62.1353 -41.1832 20
      vertex 62.1353 -41.1832 70
    endloop
  endfacet
  facet normal 0.866025 0.5 0
    outer loop
      vertex 63.7032 -43.8989 0
      vertex 63.7016 -43.8963 20
      vertex 63.7032 -43.8989 70
    endloop
  endfacet
  facet normal 0.866025 0.5 0
    outer loop
      vertex 63.7032 -43.8989 70
      vertex 63.7016 -43.8963 20
      vertex 62.1353 -41.1832 70
    endloop
  endfacet
  facet normal 0.866025 0.5 0
    outer loop
      vertex 63.7016 -43.8963 0
      vertex 63.7016 -43.8963 20
      vertex 63.7032 -43.8989 0
    endloop
  endfacet
  facet normal 0.894427 0.447214 0
    outer loop
      vertex 63.7016 -43.8963 0
      vertex 13.703 56.101 0
      vertex 13.703 56.101 20
    endloop
  endfacet
  facet normal 0.894427 0.447214 0
    outer loop
      vertex 63.7016 -43.8963 20
      vertex 63.7016 -43.8963 0
      vertex 13.703 56.101 20
    endloop
  endfacet
  facet normal 0.866037 0.49998 0
    outer loop
      vertex 13.703 56.101 0
      vertex 12.135 58.817 0
      vertex 12.135 58.817 20
    endloop
  endfacet
  facet normal 0.866037 0.49998 0
    outer loop
      vertex 13.703 56.101 20
      vertex 13.703 56.101 0
      vertex 12.135 58.817 20
    endloop
  endfacet
  facet normal 0.743136 0.669141 0
    outer loop
      vertex 12.135 58.817 0
      vertex 10.037 61.147 0
      vertex 10.037 61.147 20
    endloop
  endfacet
  facet normal 0.743136 0.669141 0
    outer loop
      vertex 12.135 58.817 20
      vertex 12.135 58.817 0
      vertex 10.037 61.147 20
    endloop
  endfacet
  facet normal 0.587735 0.809053 0
    outer loop
      vertex 7.5 62.99 0
      vertex 7.5 62.99 20
      vertex 10.037 61.147 0
    endloop
  endfacet
  facet normal 0.587735 0.809053 0
    outer loop
      vertex 10.037 61.147 0
      vertex 7.5 62.99 20
      vertex 10.037 61.147 20
    endloop
  endfacet
  facet normal 0.406848 0.913496 0
    outer loop
      vertex 4.635 64.266 0
      vertex 4.635 64.266 20
      vertex 7.5 62.99 0
    endloop
  endfacet
  facet normal 0.406848 0.913496 0
    outer loop
      vertex 7.5 62.99 0
      vertex 4.635 64.266 20
      vertex 7.5 62.99 20
    endloop
  endfacet
  facet normal 0.207939 0.978142 0
    outer loop
      vertex 1.568 64.918 0
      vertex 1.568 64.918 20
      vertex 4.635 64.266 0
    endloop
  endfacet
  facet normal 0.207939 0.978142 0
    outer loop
      vertex 4.635 64.266 0
      vertex 1.568 64.918 20
      vertex 4.635 64.266 20
    endloop
  endfacet
  facet normal 0 1 0
    outer loop
      vertex -1.568 64.918 0
      vertex -1.568 64.918 20
      vertex 1.568 64.918 0
    endloop
  endfacet
  facet normal 0 1 0
    outer loop
      vertex 1.568 64.918 0
      vertex -1.568 64.918 20
      vertex 1.568 64.918 20
    endloop
  endfacet
  facet normal -0.207939 0.978142 0
    outer loop
      vertex -4.635 64.266 0
      vertex -4.635 64.266 20
      vertex -1.568 64.918 0
    endloop
  endfacet
  facet normal -0.207939 0.978142 0
    outer loop
      vertex -1.568 64.918 0
      vertex -4.635 64.266 20
      vertex -1.568 64.918 20
    endloop
  endfacet
  facet normal -0.406848 0.913496 0
    outer loop
      vertex -4.89773 64.149 0
      vertex -4.89773 64.149 20
      vertex -4.635 64.266 0
    endloop
  endfacet
  facet normal -0.406848 0.913496 0
    outer loop
      vertex -4.635 64.266 0
      vertex -4.89773 64.149 20
      vertex -4.635 64.266 20
    endloop
  endfacet
  facet normal -0.406737 0.913545 0
    outer loop
      vertex -7.5 62.9904 0
      vertex -7.5 62.9904 70
      vertex -4.89773 64.149 0
    endloop
  endfacet
  facet normal -0.406737 0.913545 0
    outer loop
      vertex -4.89773 64.149 20
      vertex -7.5 62.9904 70
      vertex -4.63525 64.2658 70
    endloop
  endfacet
  facet normal -0.406737 0.913545 0
    outer loop
      vertex -4.89773 64.149 0
      vertex -7.5 62.9904 70
      vertex -4.89773 64.149 20
    endloop
  endfacet
  facet normal -0.406737 0.913545 0
    outer loop
      vertex -4.89773 64.149 20
      vertex -4.63525 64.2658 70
      vertex -4.63525 64.2658 20
    endloop
  endfacet
  facet normal -0.587785 0.809017 0
    outer loop
      vertex -10.037 61.1472 0
      vertex -10.037 61.1472 70
      vertex -7.5 62.9904 0
    endloop
  endfacet
  facet normal -0.587785 0.809017 0
    outer loop
      vertex -7.5 62.9904 0
      vertex -10.037 61.1472 70
      vertex -7.5 62.9904 70
    endloop
  endfacet
  facet normal -0.743145 0.669131 0
    outer loop
      vertex -12.1353 58.8168 0
      vertex -12.1353 58.8168 70
      vertex -10.037 61.1472 0
    endloop
  endfacet
  facet normal -0.743145 0.669131 0
    outer loop
      vertex -10.037 61.1472 0
      vertex -12.1353 58.8168 70
      vertex -10.037 61.1472 70
    endloop
  endfacet
  facet normal -0.866025 0.5 0
    outer loop
      vertex -13.7032 56.101 0
      vertex -13.7032 56.101 70
      vertex -12.1353 58.8168 0
    endloop
  endfacet
  facet normal -0.866025 0.5 0
    outer loop
      vertex -12.1353 58.8168 0
      vertex -13.7032 56.101 70
      vertex -12.1353 58.8168 70
    endloop
  endfacet
  facet normal -0.951057 0.309017 0
    outer loop
      vertex -14.6722 53.1187 20
      vertex -14.6722 53.1187 70
      vertex -13.7036 56.0999 20
    endloop
  endfacet
  facet normal -0.951057 0.309017 0
    outer loop
      vertex -13.7036 56.0999 20
      vertex -14.6722 53.1187 70
      vertex -13.7032 56.101 70
    endloop
  endfacet
  facet normal -0.951057 0.309017 0
    outer loop
      vertex -13.7036 56.0999 20
      vertex -13.7032 56.101 70
      vertex -13.7032 56.101 0
    endloop
  endfacet
  facet normal -0.951057 0.309017 0
    outer loop
      vertex -13.7036 56.0999 20
      vertex -13.7032 56.101 0
      vertex -13.7036 56.0999 0
    endloop
  endfacet
  facet normal -0.894427 0.447214 0
    outer loop
      vertex -63.703 -43.899 0
      vertex -63.703 -43.899 20
      vertex -13.7036 56.0999 0
    endloop
  endfacet
  facet normal -0.894427 0.447214 0
    outer loop
      vertex -13.7036 56.0999 0
      vertex -63.703 -43.899 20
      vertex -13.7036 56.0999 20
    endloop
  endfacet
  facet normal -0.951048 0.309043 0
    outer loop
      vertex -64.672 -46.881 0
      vertex -64.672 -46.881 20
      vertex -63.703 -43.899 0
    endloop
  endfacet
  facet normal -0.951048 0.309043 0
    outer loop
      vertex -63.703 -43.899 0
      vertex -64.672 -46.881 20
      vertex -63.703 -43.899 20
    endloop
  endfacet
  facet normal -0.994522 0.104528 0
    outer loop
      vertex -15 50 20
      vertex -15 50 70
      vertex -14.6722 53.1187 20
    endloop
  endfacet
  facet normal -0.994522 0.104528 0
    outer loop
      vertex -14.6722 53.1187 20
      vertex -15 50 70
      vertex -14.6722 53.1187 70
    endloop
  endfacet
  facet normal -0.994522 -0.104528 0
    outer loop
      vertex -15 50 20
      vertex -14.6722 46.8813 20
      vertex -15 50 70
    endloop
  endfacet
  facet normal -0.994522 -0.104528 0
    outer loop
      vertex -15 50 70
      vertex -14.6722 46.8813 20
      vertex -14.6722 46.8813 70
    endloop
  endfacet
  facet normal -0.951057 -0.309017 0
    outer loop
      vertex -14.6722 46.8813 20
      vertex -13.7032 43.8989 20
      vertex -14.6722 46.8813 70
    endloop
  endfacet
  facet normal -0.951057 -0.309017 0
    outer loop
      vertex -14.6722 46.8813 70
      vertex -13.7032 43.8989 20
      vertex -13.7032 43.8989 70
    endloop
  endfacet
  facet normal -0.866025 -0.5 0
    outer loop
      vertex -13.7032 43.8989 20
      vertex -12.1353 41.1832 20
      vertex -13.7032 43.8989 70
    endloop
  endfacet
  facet normal -0.866025 -0.5 0
    outer loop
      vertex -13.7032 43.8989 70
      vertex -12.1353 41.1832 20
      vertex -12.1353 41.1832 70
    endloop
  endfacet
  facet normal -0.743145 -0.669131 0
    outer loop
      vertex -12.1353 41.1832 20
      vertex -10.037 38.8528 20
      vertex -12.1353 41.1832 70
    endloop
  endfacet
  facet normal -0.743145 -0.669131 0
    outer loop
      vertex -12.1353 41.1832 70
      vertex -10.037 38.8528 20
      vertex -10.037 38.8528 70
    endloop
  endfacet
  facet normal -0.587785 -0.809017 0
    outer loop
      vertex -10.037 38.8528 70
      vertex -10.037 38.8528 20
      vertex -7.5 37.0096 20
    endloop
  endfacet
  facet normal -0.587785 -0.809017 0
    outer loop
      vertex -7.5 37.0096 70
      vertex -10.037 38.8528 70
      vertex -7.5 37.0096 20
    endloop
  endfacet
  facet normal -0.406737 -0.913545 0
    outer loop
      vertex -7.5 37.0096 70
      vertex -7.5 37.0096 20
      vertex -4.63525 35.7342 20
    endloop
  endfacet
  facet normal -0.406737 -0.913545 0
    outer loop
      vertex -4.63525 35.7342 70
      vertex -7.5 37.0096 70
      vertex -4.63525 35.7342 20
    endloop
  endfacet
  facet normal -0.207911 -0.978148 0
    outer loop
      vertex -4.63525 35.7342 70
      vertex -4.63525 35.7342 20
      vertex -1.56793 35.0822 20
    endloop
  endfacet
  facet normal -0.207911 -0.978148 0
    outer loop
      vertex -1.56793 35.0822 70
      vertex -4.63525 35.7342 70
      vertex -1.56793 35.0822 20
    endloop
  endfacet
  facet normal 0 -1 0
    outer loop
      vertex -1.56793 35.0822 70
      vertex -1.56793 35.0822 20
      vertex -1 35.0822 20
    endloop
  endfacet
  facet normal 0 -1 0
    outer loop
      vertex -1 35.0822 70
      vertex -1.56793 35.0822 70
      vertex -1 35.0822 20
    endloop
  endfacet
  facet normal 1 0 0
    outer loop
      vertex -1 64.9178 20
      vertex -1 64.9178 70
      vertex -1 35.0822 70
    endloop
  endfacet
  facet normal 1 0 0
    outer loop
      vertex -1 35.0822 20
      vertex -1 64.9178 20
      vertex -1 35.0822 70
    endloop
  endfacet
  facet normal 0 1 0
    outer loop
      vertex -1.56793 64.9178 20
      vertex -1.56793 64.9178 70
      vertex -1 64.9178 20
    endloop
  endfacet
  facet normal 0 1 0
    outer loop
      vertex -1 64.9178 20
      vertex -1.56793 64.9178 70
      vertex -1 64.9178 70
    endloop
  endfacet
  facet normal -0.207911 0.978148 0
    outer loop
      vertex -4.63525 64.2658 20
      vertex -4.63525 64.2658 70
      vertex -1.56793 64.9178 20
    endloop
  endfacet
  facet normal -0.207911 0.978148 0
    outer loop
      vertex -1.56793 64.9178 20
      vertex -4.63525 64.2658 70
      vertex -1.56793 64.9178 70
    endloop
  endfacet
  facet normal 0.743145 0.669131 0
    outer loop
      vertex 62.1353 -41.1832 20
      vertex 60.037 -38.8528 20
      vertex 60.037 -38.8528 70
    endloop
  endfacet
  facet normal 0.743145 0.669131 0
    outer loop
      vertex 62.1353 -41.1832 70
      vertex 62.1353 -41.1832 20
      vertex 60.037 -38.8528 70
    endloop
  endfacet
  facet normal 0.587785 0.809017 0
    outer loop
      vertex 57.5 -37.0096 20
      vertex 57.5 -37.0096 70
      vertex 60.037 -38.8528 20
    endloop
  endfacet
  facet normal 0.587785 0.809017 0
    outer loop
      vertex 60.037 -38.8528 20
      vertex 57.5 -37.0096 70
      vertex 60.037 -38.8528 70
    endloop
  endfacet
  facet normal 0.406737 0.913545 0
    outer loop
      vertex 54.6353 -35.7342 20
      vertex 54.6353 -35.7342 70
      vertex 57.5 -37.0096 20
    endloop
  endfacet
  facet normal 0.406737 0.913545 0
    outer loop
      vertex 57.5 -37.0096 20
      vertex 54.6353 -35.7342 70
      vertex 57.5 -37.0096 70
    endloop
  endfacet
  facet normal 0.207911 0.978148 0
    outer loop
      vertex 51.5679 -35.0822 20
      vertex 51.5679 -35.0822 70
      vertex 54.6353 -35.7342 20
    endloop
  endfacet
  facet normal 0.207911 0.978148 0
    outer loop
      vertex 54.6353 -35.7342 20
      vertex 51.5679 -35.0822 70
      vertex 54.6353 -35.7342 70
    endloop
  endfacet
  facet normal 0 1 0
    outer loop
      vertex 48.4321 -35.0822 20
      vertex 48.4321 -35.0822 70
      vertex 51.5679 -35.0822 20
    endloop
  endfacet
  facet normal 0 1 0
    outer loop
      vertex 51.5679 -35.0822 20
      vertex 48.4321 -35.0822 70
      vertex 51.5679 -35.0822 70
    endloop
  endfacet
  facet normal -0.207911 0.978148 0
    outer loop
      vertex 45.3647 -35.7342 20
      vertex 45.3647 -35.7342 70
      vertex 48.4321 -35.0822 20
    endloop
  endfacet
  facet normal -0.207911 0.978148 0
    outer loop
      vertex 48.4321 -35.0822 20
      vertex 45.3647 -35.7342 70
      vertex 48.4321 -35.0822 70
    endloop
  endfacet
  facet normal -0.406737 0.913545 0
    outer loop
      vertex 42.5 -37.0096 20
      vertex 42.5 -37.0096 70
      vertex 45.3647 -35.7342 20
    endloop
  endfacet
  facet normal -0.406737 0.913545 0
    outer loop
      vertex 45.3647 -35.7342 20
      vertex 42.5 -37.0096 70
      vertex 45.3647 -35.7342 70
    endloop
  endfacet
  facet normal -0.587785 0.809017 0
    outer loop
      vertex 39.963 -38.8528 20
      vertex 39.963 -38.8528 70
      vertex 42.5 -37.0096 20
    endloop
  endfacet
  facet normal -0.587785 0.809017 0
    outer loop
      vertex 42.5 -37.0096 20
      vertex 39.963 -38.8528 70
      vertex 42.5 -37.0096 70
    endloop
  endfacet
  facet normal -0.743145 0.669131 0
    outer loop
      vertex 37.8647 -41.1832 20
      vertex 37.8647 -41.1832 70
      vertex 39.963 -38.8528 20
    endloop
  endfacet
  facet normal -0.743145 0.669131 0
    outer loop
      vertex 39.963 -38.8528 20
      vertex 37.8647 -41.1832 70
      vertex 39.963 -38.8528 70
    endloop
  endfacet
  facet normal -0.866025 0.5 0
    outer loop
      vertex 36.2968 -43.8989 20
      vertex 36.2968 -43.8989 70
      vertex 37.8647 -41.1832 20
    endloop
  endfacet
  facet normal -0.866025 0.5 0
    outer loop
      vertex 37.8647 -41.1832 20
      vertex 36.2968 -43.8989 70
      vertex 37.8647 -41.1832 70
    endloop
  endfacet
  facet normal -0.951057 0.309017 0
    outer loop
      vertex 35.3278 -46.8813 20
      vertex 35.3278 -46.8813 70
      vertex 36.2968 -43.8989 20
    endloop
  endfacet
  facet normal -0.951057 0.309017 0
    outer loop
      vertex 36.2968 -43.8989 20
      vertex 35.3278 -46.8813 70
      vertex 36.2968 -43.8989 70
    endloop
  endfacet
  facet normal -0.994522 0.104528 0
    outer loop
      vertex 35 -50 20
      vertex 35 -50 70
      vertex 35.3278 -46.8813 20
    endloop
  endfacet
  facet normal -0.994522 0.104528 0
    outer loop
      vertex 35.3278 -46.8813 20
      vertex 35 -50 70
      vertex 35.3278 -46.8813 70
    endloop
  endfacet
  facet normal -0.994522 -0.104528 0
    outer loop
      vertex 35 -50 20
      vertex 35.3278 -53.1187 20
      vertex 35 -50 70
    endloop
  endfacet
  facet normal -0.994522 -0.104528 0
    outer loop
      vertex 35 -50 70
      vertex 35.3278 -53.1187 20
      vertex 35.3278 -53.1187 70
    endloop
  endfacet
  facet normal -1 0 0
    outer loop
      vertex -58.9472 -50.9731 20
      vertex -58.9472 -50.9731 70
      vertex -58.9472 -49.0269 20
    endloop
  endfacet
  facet normal -1 0 0
    outer loop
      vertex -58.9472 -49.0269 20
      vertex -58.9472 -50.9731 70
      vertex -58.9472 -49.0269 70
    endloop
  endfacet
  facet normal -0.976621 -0.21497 0
    outer loop
      vertex -58.9472 -50.9731 20
      vertex -58.5289 -52.8737 20
      vertex -58.9472 -50.9731 70
    endloop
  endfacet
  facet normal -0.976621 -0.21497 0
    outer loop
      vertex -58.9472 -50.9731 70
      vertex -58.5289 -52.8737 20
      vertex -58.5289 -52.8737 70
    endloop
  endfacet
  facet normal -0.907575 -0.419889 0
    outer loop
      vertex -58.5289 -52.8737 20
      vertex -57.7117 -54.64 20
      vertex -58.5289 -52.8737 70
    endloop
  endfacet
  facet normal -0.907575 -0.419889 0
    outer loop
      vertex -58.5289 -52.8737 70
      vertex -57.7117 -54.64 20
      vertex -57.7117 -54.64 70
    endloop
  endfacet
  facet normal -0.796093 -0.605175 0
    outer loop
      vertex -57.7117 -54.64 20
      vertex -56.534 -56.1893 20
      vertex -57.7117 -54.64 70
    endloop
  endfacet
  facet normal -0.796093 -0.605175 0
    outer loop
      vertex -57.7117 -54.64 70
      vertex -56.534 -56.1893 20
      vertex -56.534 -56.1893 70
    endloop
  endfacet
  facet normal -0.647387 -0.762162 0
    outer loop
      vertex -56.534 -56.1893 70
      vertex -56.534 -56.1893 20
      vertex -55.0507 -57.4492 20
    endloop
  endfacet
  facet normal -0.647387 -0.762162 0
    outer loop
      vertex -55.0507 -57.4492 70
      vertex -56.534 -56.1893 70
      vertex -55.0507 -57.4492 20
    endloop
  endfacet
  facet normal -0.468408 -0.883512 0
    outer loop
      vertex -55.0507 -57.4492 70
      vertex -55.0507 -57.4492 20
      vertex -53.3312 -58.3608 20
    endloop
  endfacet
  facet normal -0.468408 -0.883512 0
    outer loop
      vertex -53.3312 -58.3608 70
      vertex -55.0507 -57.4492 70
      vertex -53.3312 -58.3608 20
    endloop
  endfacet
  facet normal -0.267529 -0.96355 0
    outer loop
      vertex -53.3312 -58.3608 70
      vertex -53.3312 -58.3608 20
      vertex -51.456 -58.8814 20
    endloop
  endfacet
  facet normal -0.267529 -0.96355 0
    outer loop
      vertex -51.456 -58.8814 70
      vertex -53.3312 -58.3608 70
      vertex -51.456 -58.8814 20
    endloop
  endfacet
  facet normal -0.0541389 -0.998533 0
    outer loop
      vertex -51.456 -58.8814 70
      vertex -51.456 -58.8814 20
      vertex -49.5127 -58.9868 20
    endloop
  endfacet
  facet normal -0.0541389 -0.998533 0
    outer loop
      vertex -49.5127 -58.9868 70
      vertex -51.456 -58.8814 70
      vertex -49.5127 -58.9868 20
    endloop
  endfacet
  facet normal 0.161782 -0.986827 0
    outer loop
      vertex -49.5127 -58.9868 70
      vertex -49.5127 -58.9868 20
      vertex -47.5922 -58.6719 20
    endloop
  endfacet
  facet normal 0.161782 -0.986827 0
    outer loop
      vertex -47.5922 -58.6719 70
      vertex -49.5127 -58.9868 70
      vertex -47.5922 -58.6719 20
    endloop
  endfacet
  facet normal 0.370138 -0.928977 0
    outer loop
      vertex -47.5922 -58.6719 70
      vertex -47.5922 -58.6719 20
      vertex -45.7843 -57.9516 20
    endloop
  endfacet
  facet normal 0.370138 -0.928977 0
    outer loop
      vertex -45.7843 -57.9516 70
      vertex -47.5922 -58.6719 70
      vertex -45.7843 -57.9516 20
    endloop
  endfacet
  facet normal 0.561187 -0.827689 0
    outer loop
      vertex -45.7843 -57.9516 70
      vertex -45.7843 -57.9516 20
      vertex -44.1735 -56.8595 20
    endloop
  endfacet
  facet normal 0.561187 -0.827689 0
    outer loop
      vertex -44.1735 -56.8595 70
      vertex -45.7843 -57.9516 70
      vertex -44.1735 -56.8595 20
    endloop
  endfacet
  facet normal 0.725995 -0.6877 0
    outer loop
      vertex -44.1735 -56.8595 70
      vertex -44.1735 -56.8595 20
      vertex -42.8352 -55.4466 20
    endloop
  endfacet
  facet normal 0.725995 -0.6877 0
    outer loop
      vertex -42.8352 -55.4466 70
      vertex -44.1735 -56.8595 70
      vertex -42.8352 -55.4466 20
    endloop
  endfacet
  facet normal 0.856857 -0.515554 0
    outer loop
      vertex -42.8352 -55.4466 70
      vertex -42.8352 -55.4466 20
      vertex -41.8318 -53.779 20
    endloop
  endfacet
  facet normal 0.856857 -0.515554 0
    outer loop
      vertex -41.8318 -53.779 70
      vertex -42.8352 -55.4466 70
      vertex -41.8318 -53.779 20
    endloop
  endfacet
  facet normal 0.947653 -0.319301 0
    outer loop
      vertex -41.8318 -53.779 70
      vertex -41.8318 -53.779 20
      vertex -41.2104 -51.9347 20
    endloop
  endfacet
  facet normal 0.947653 -0.319301 0
    outer loop
      vertex -41.2104 -51.9347 70
      vertex -41.8318 -53.779 70
      vertex -41.2104 -51.9347 20
    endloop
  endfacet
  facet normal 0.994138 -0.108119 0
    outer loop
      vertex -41.2104 -51.9347 70
      vertex -41.2104 -51.9347 20
      vertex -41 -50 20
    endloop
  endfacet
  facet normal 0.994138 -0.108119 0
    outer loop
      vertex -41 -50 70
      vertex -41.2104 -51.9347 70
      vertex -41 -50 20
    endloop
  endfacet
  facet normal 0.994138 0.108119 0
    outer loop
      vertex -41 -50 20
      vertex -41.2104 -48.0653 20
      vertex -41.2104 -48.0653 70
    endloop
  endfacet
  facet normal 0.994138 0.108119 0
    outer loop
      vertex -41 -50 70
      vertex -41 -50 20
      vertex -41.2104 -48.0653 70
    endloop
  endfacet
  facet normal 0.947653 0.319301 0
    outer loop
      vertex -41.2104 -48.0653 20
      vertex -41.8318 -46.221 20
      vertex -41.8318 -46.221 70
    endloop
  endfacet
  facet normal 0.947653 0.319301 0
    outer loop
      vertex -41.2104 -48.0653 70
      vertex -41.2104 -48.0653 20
      vertex -41.8318 -46.221 70
    endloop
  endfacet
  facet normal 0.856857 0.515554 0
    outer loop
      vertex -41.8318 -46.221 20
      vertex -42.8352 -44.5534 20
      vertex -42.8352 -44.5534 70
    endloop
  endfacet
  facet normal 0.856857 0.515554 0
    outer loop
      vertex -41.8318 -46.221 70
      vertex -41.8318 -46.221 20
      vertex -42.8352 -44.5534 70
    endloop
  endfacet
  facet normal 0.725995 0.6877 0
    outer loop
      vertex -42.8352 -44.5534 20
      vertex -44.1735 -43.1405 20
      vertex -44.1735 -43.1405 70
    endloop
  endfacet
  facet normal 0.725995 0.6877 0
    outer loop
      vertex -42.8352 -44.5534 70
      vertex -42.8352 -44.5534 20
      vertex -44.1735 -43.1405 70
    endloop
  endfacet
  facet normal 0.561187 0.827689 0
    outer loop
      vertex -45.7843 -42.0484 20
      vertex -45.7843 -42.0484 70
      vertex -44.1735 -43.1405 20
    endloop
  endfacet
  facet normal 0.561187 0.827689 0
    outer loop
      vertex -44.1735 -43.1405 20
      vertex -45.7843 -42.0484 70
      vertex -44.1735 -43.1405 70
    endloop
  endfacet
  facet normal 0.370138 0.928977 0
    outer loop
      vertex -47.5922 -41.328 20
      vertex -47.5922 -41.328 70
      vertex -45.7843 -42.0484 20
    endloop
  endfacet
  facet normal 0.370138 0.928977 0
    outer loop
      vertex -45.7843 -42.0484 20
      vertex -47.5922 -41.328 70
      vertex -45.7843 -42.0484 70
    endloop
  endfacet
  facet normal 0.161782 0.986827 0
    outer loop
      vertex -49.5127 -41.0132 20
      vertex -49.5127 -41.0132 70
      vertex -47.5922 -41.328 20
    endloop
  endfacet
  facet normal 0.161782 0.986827 0
    outer loop
      vertex -47.5922 -41.328 20
      vertex -49.5127 -41.0132 70
      vertex -47.5922 -41.328 70
    endloop
  endfacet
  facet normal -0.0541389 0.998533 0
    outer loop
      vertex -51.456 -41.1186 20
      vertex -51.456 -41.1186 70
      vertex -49.5127 -41.0132 20
    endloop
  endfacet
  facet normal -0.0541389 0.998533 0
    outer loop
      vertex -49.5127 -41.0132 20
      vertex -51.456 -41.1186 70
      vertex -49.5127 -41.0132 70
    endloop
  endfacet
  facet normal -0.267529 0.96355 0
    outer loop
      vertex -53.3312 -41.6392 20
      vertex -53.3312 -41.6392 70
      vertex -51.456 -41.1186 20
    endloop
  endfacet
  facet normal -0.267529 0.96355 0
    outer loop
      vertex -51.456 -41.1186 20
      vertex -53.3312 -41.6392 70
      vertex -51.456 -41.1186 70
    endloop
  endfacet
  facet normal -0.468408 0.883512 0
    outer loop
      vertex -55.0507 -42.5508 20
      vertex -55.0507 -42.5508 70
      vertex -53.3312 -41.6392 20
    endloop
  endfacet
  facet normal -0.468408 0.883512 0
    outer loop
      vertex -53.3312 -41.6392 20
      vertex -55.0507 -42.5508 70
      vertex -53.3312 -41.6392 70
    endloop
  endfacet
  facet normal -0.647387 0.762162 0
    outer loop
      vertex -56.534 -43.8107 20
      vertex -56.534 -43.8107 70
      vertex -55.0507 -42.5508 20
    endloop
  endfacet
  facet normal -0.647387 0.762162 0
    outer loop
      vertex -55.0507 -42.5508 20
      vertex -56.534 -43.8107 70
      vertex -55.0507 -42.5508 70
    endloop
  endfacet
  facet normal -0.796093 0.605175 0
    outer loop
      vertex -57.7117 -45.36 20
      vertex -57.7117 -45.36 70
      vertex -56.534 -43.8107 20
    endloop
  endfacet
  facet normal -0.796093 0.605175 0
    outer loop
      vertex -56.534 -43.8107 20
      vertex -57.7117 -45.36 70
      vertex -56.534 -43.8107 70
    endloop
  endfacet
  facet normal -0.907575 0.419889 0
    outer loop
      vertex -58.5289 -47.1263 20
      vertex -58.5289 -47.1263 70
      vertex -57.7117 -45.36 20
    endloop
  endfacet
  facet normal -0.907575 0.419889 0
    outer loop
      vertex -57.7117 -45.36 20
      vertex -58.5289 -47.1263 70
      vertex -57.7117 -45.36 70
    endloop
  endfacet
  facet normal -0.976621 0.21497 0
    outer loop
      vertex -58.9472 -49.0269 20
      vertex -58.9472 -49.0269 70
      vertex -58.5289 -47.1263 20
    endloop
  endfacet
  facet normal -0.976621 0.21497 0
    outer loop
      vertex -58.5289 -47.1263 20
      vertex -58.9472 -49.0269 70
      vertex -58.5289 -47.1263 70
    endloop
  endfacet
  facet normal 0 0 1
    outer loop
      vertex 35.3278 -46.8813 70
      vertex 35 -50 70
      vertex 35.3278 -53.1187 70
    endloop
  endfacet
  facet normal 0 0 1
    outer loop
      vertex 37.8647 -58.8168 70
      vertex 35.3278 -46.8813 70
      vertex 36.2968 -56.101 70
    endloop
  endfacet
  facet normal 0 0 1
    outer loop
      vertex 36.2968 -56.101 70
      vertex 35.3278 -46.8813 70
      vertex 35.3278 -53.1187 70
    endloop
  endfacet
  facet normal 0 0 1
    outer loop
      vertex 39.963 -61.1472 70
      vertex 35.3278 -46.8813 70
      vertex 37.8647 -58.8168 70
    endloop
  endfacet
  facet normal 0 0 1
    outer loop
      vertex 42.5 -62.9904 70
      vertex 35.3278 -46.8813 70
      vertex 39.963 -61.1472 70
    endloop
  endfacet
  facet normal 0 0 1
    outer loop
      vertex 45.3647 -64.2658 70
      vertex 35.3278 -46.8813 70
      vertex 42.5 -62.9904 70
    endloop
  endfacet
  facet normal 0 0 1
    outer loop
      vertex 48.4321 -64.9178 70
      vertex 35.3278 -46.8813 70
      vertex 45.3647 -64.2658 70
    endloop
  endfacet
  facet normal 0 0 1
    outer loop
      vertex 41.9098 -55.8779 70
      vertex 35.3278 -46.8813 70
      vertex 48.4321 -64.9178 70
    endloop
  endfacet
  facet normal 0 0 1
    outer loop
      vertex 58.0902 -55.8779 70
      vertex 56.6913 -57.4314 70
      vertex 62.1353 -58.8168 70
    endloop
  endfacet
  facet normal 0 0 1
    outer loop
      vertex 40.2185 -47.9209 70
      vertex 40.8645 -45.9326 70
      vertex 35.3278 -46.8813 70
    endloop
  endfacet
  facet normal 0 0 1
    outer loop
      vertex 56.6913 -57.4314 70
      vertex 55 -58.6603 70
      vertex 60.037 -61.1472 70
    endloop
  endfacet
  facet normal 0 0 1
    outer loop
      vertex 58.0902 -44.1221 70
      vertex 59.1355 -45.9326 70
      vertex 63.7032 -43.8989 70
    endloop
  endfacet
  facet normal 0 0 1
    outer loop
      vertex 48.9547 -40.0548 70
      vertex 51.0453 -40.0548 70
      vertex 57.5 -37.0096 70
    endloop
  endfacet
  facet normal 0 0 1
    outer loop
      vertex 53.0902 -40.4894 70
      vertex 55 -41.3397 70
      vertex 60.037 -38.8528 70
    endloop
  endfacet
  facet normal 0 0 1
    outer loop
      vertex 51.5679 -35.0822 70
      vertex 35.3278 -46.8813 70
      vertex 54.6353 -35.7342 70
    endloop
  endfacet
  facet normal 0 0 1
    outer loop
      vertex 48.4321 -35.0822 70
      vertex 35.3278 -46.8813 70
      vertex 51.5679 -35.0822 70
    endloop
  endfacet
  facet normal 0 0 1
    outer loop
      vertex 45.3647 -35.7342 70
      vertex 35.3278 -46.8813 70
      vertex 48.4321 -35.0822 70
    endloop
  endfacet
  facet normal 0 0 1
    outer loop
      vertex 42.5 -37.0096 70
      vertex 35.3278 -46.8813 70
      vertex 45.3647 -35.7342 70
    endloop
  endfacet
  facet normal 0 0 1
    outer loop
      vertex 39.963 -38.8528 70
      vertex 35.3278 -46.8813 70
      vertex 42.5 -37.0096 70
    endloop
  endfacet
  facet normal 0 0 1
    outer loop
      vertex 37.8647 -41.1832 70
      vertex 35.3278 -46.8813 70
      vertex 39.963 -38.8528 70
    endloop
  endfacet
  facet normal 0 0 1
    outer loop
      vertex 36.2968 -43.8989 70
      vertex 35.3278 -46.8813 70
      vertex 37.8647 -41.1832 70
    endloop
  endfacet
  facet normal 0 0 1
    outer loop
      vertex 41.9098 -55.8779 70
      vertex 40.8645 -54.0674 70
      vertex 35.3278 -46.8813 70
    endloop
  endfacet
  facet normal 0 0 1
    outer loop
      vertex 59.1355 -54.0674 70
      vertex 58.0902 -55.8779 70
      vertex 63.7032 -56.101 70
    endloop
  endfacet
  facet normal 0 0 1
    outer loop
      vertex 59.1355 -45.9326 70
      vertex 59.7815 -47.9209 70
      vertex 64.6722 -46.8813 70
    endloop
  endfacet
  facet normal 0 0 1
    outer loop
      vertex 45 -41.3397 70
      vertex 46.9098 -40.4894 70
      vertex 54.6353 -35.7342 70
    endloop
  endfacet
  facet normal 0 0 1
    outer loop
      vertex 55 -41.3397 70
      vertex 56.6913 -42.5686 70
      vertex 62.1353 -41.1832 70
    endloop
  endfacet
  facet normal 0 0 1
    outer loop
      vertex 45 -41.3397 70
      vertex 35.3278 -46.8813 70
      vertex 43.3087 -42.5686 70
    endloop
  endfacet
  facet normal 0 0 1
    outer loop
      vertex 54.6353 -35.7342 70
      vertex 35.3278 -46.8813 70
      vertex 45 -41.3397 70
    endloop
  endfacet
  facet normal 0 0 1
    outer loop
      vertex 54.6353 -35.7342 70
      vertex 46.9098 -40.4894 70
      vertex 57.5 -37.0096 70
    endloop
  endfacet
  facet normal 0 0 1
    outer loop
      vertex 46.9098 -40.4894 70
      vertex 48.9547 -40.0548 70
      vertex 57.5 -37.0096 70
    endloop
  endfacet
  facet normal 0 0 1
    outer loop
      vertex 57.5 -37.0096 70
      vertex 51.0453 -40.0548 70
      vertex 60.037 -38.8528 70
    endloop
  endfacet
  facet normal 0 0 1
    outer loop
      vertex 51.0453 -40.0548 70
      vertex 53.0902 -40.4894 70
      vertex 60.037 -38.8528 70
    endloop
  endfacet
  facet normal 0 0 1
    outer loop
      vertex 60.037 -38.8528 70
      vertex 55 -41.3397 70
      vertex 62.1353 -41.1832 70
    endloop
  endfacet
  facet normal 0 0 1
    outer loop
      vertex 41.9098 -44.1221 70
      vertex 43.3087 -42.5686 70
      vertex 35.3278 -46.8813 70
    endloop
  endfacet
  facet normal 0 0 1
    outer loop
      vertex 62.1353 -41.1832 70
      vertex 56.6913 -42.5686 70
      vertex 63.7032 -43.8989 70
    endloop
  endfacet
  facet normal 0 0 1
    outer loop
      vertex 56.6913 -42.5686 70
      vertex 58.0902 -44.1221 70
      vertex 63.7032 -43.8989 70
    endloop
  endfacet
  facet normal 0 0 1
    outer loop
      vertex 63.7032 -43.8989 70
      vertex 59.1355 -45.9326 70
      vertex 64.6722 -46.8813 70
    endloop
  endfacet
  facet normal 0 0 1
    outer loop
      vertex 59.7815 -47.9209 70
      vertex 60 -50 70
      vertex 65 -50 70
    endloop
  endfacet
  facet normal 0 0 1
    outer loop
      vertex 64.6722 -46.8813 70
      vertex 59.7815 -47.9209 70
      vertex 65 -50 70
    endloop
  endfacet
  facet normal 0 0 1
    outer loop
      vertex 40.8645 -45.9326 70
      vertex 41.9098 -44.1221 70
      vertex 35.3278 -46.8813 70
    endloop
  endfacet
  facet normal 0 0 1
    outer loop
      vertex 65 -50 70
      vertex 60 -50 70
      vertex 64.6722 -53.1187 70
    endloop
  endfacet
  facet normal 0 0 1
    outer loop
      vertex 64.6722 -53.1187 70
      vertex 59.7815 -52.0791 70
      vertex 63.7032 -56.101 70
    endloop
  endfacet
  facet normal 0 0 1
    outer loop
      vertex 59.7815 -52.0791 70
      vertex 59.1355 -54.0674 70
      vertex 63.7032 -56.101 70
    endloop
  endfacet
  facet normal 0 0 1
    outer loop
      vertex 63.7032 -56.101 70
      vertex 58.0902 -55.8779 70
      vertex 62.1353 -58.8168 70
    endloop
  endfacet
  facet normal 0 0 1
    outer loop
      vertex 60 -50 70
      vertex 59.7815 -52.0791 70
      vertex 64.6722 -53.1187 70
    endloop
  endfacet
  facet normal 0 0 1
    outer loop
      vertex 62.1353 -58.8168 70
      vertex 56.6913 -57.4314 70
      vertex 60.037 -61.1472 70
    endloop
  endfacet
  facet normal 0 0 1
    outer loop
      vertex 60.037 -61.1472 70
      vertex 55 -58.6603 70
      vertex 57.5 -62.9904 70
    endloop
  endfacet
  facet normal 0 0 1
    outer loop
      vertex 55 -58.6603 70
      vertex 53.0902 -59.5106 70
      vertex 57.5 -62.9904 70
    endloop
  endfacet
  facet normal 0 0 1
    outer loop
      vertex 57.5 -62.9904 70
      vertex 51.0453 -59.9452 70
      vertex 54.6353 -64.2658 70
    endloop
  endfacet
  facet normal 0 0 1
    outer loop
      vertex 54.6353 -64.2658 70
      vertex 48.9547 -59.9452 70
      vertex 51.5679 -64.9178 70
    endloop
  endfacet
  facet normal 0 0 1
    outer loop
      vertex 48.9547 -59.9452 70
      vertex 46.9098 -59.5106 70
      vertex 51.5679 -64.9178 70
    endloop
  endfacet
  facet normal 0 0 1
    outer loop
      vertex 51.5679 -64.9178 70
      vertex 45 -58.6603 70
      vertex 48.4321 -64.9178 70
    endloop
  endfacet
  facet normal 0 0 1
    outer loop
      vertex 45 -58.6603 70
      vertex 43.3087 -57.4314 70
      vertex 48.4321 -64.9178 70
    endloop
  endfacet
  facet normal 0 0 1
    outer loop
      vertex 43.3087 -57.4314 70
      vertex 41.9098 -55.8779 70
      vertex 48.4321 -64.9178 70
    endloop
  endfacet
  facet normal 0 0 1
    outer loop
      vertex 46.9098 -59.5106 70
      vertex 45 -58.6603 70
      vertex 51.5679 -64.9178 70
    endloop
  endfacet
  facet normal 0 0 1
    outer loop
      vertex 40.8645 -54.0674 70
      vertex 40.2185 -52.0791 70
      vertex 35.3278 -46.8813 70
    endloop
  endfacet
  facet normal 0 0 1
    outer loop
      vertex 40.2185 -52.0791 70
      vertex 40 -50 70
      vertex 35.3278 -46.8813 70
    endloop
  endfacet
  facet normal 0 0 1
    outer loop
      vertex 51.0453 -59.9452 70
      vertex 48.9547 -59.9452 70
      vertex 54.6353 -64.2658 70
    endloop
  endfacet
  facet normal 0 0 1
    outer loop
      vertex 53.0902 -59.5106 70
      vertex 51.0453 -59.9452 70
      vertex 57.5 -62.9904 70
    endloop
  endfacet
  facet normal 0 0 1
    outer loop
      vertex 40 -50 70
      vertex 40.2185 -47.9209 70
      vertex 35.3278 -46.8813 70
    endloop
  endfacet
  facet normal -0.207911 -0.978148 0
    outer loop
      vertex 45.3647 -64.2658 70
      vertex 45.3647 -64.2658 20
      vertex 48.4321 -64.9178 20
    endloop
  endfacet
  facet normal -0.207911 -0.978148 0
    outer loop
      vertex 48.4321 -64.9178 70
      vertex 45.3647 -64.2658 70
      vertex 48.4321 -64.9178 20
    endloop
  endfacet
  facet normal 0 0 1
    outer loop
      vertex 45.3647 -64.2658 20
      vertex 45.1023 -64.149 20
      vertex 45.365 -64.266 20
    endloop
  endfacet
  facet normal 0 0 1
    outer loop
      vertex 48.432 -64.918 20
      vertex 45.3647 -64.2658 20
      vertex 45.365 -64.266 20
    endloop
  endfacet
  facet normal 0 0 1
    outer loop
      vertex 48.4321 -64.9178 20
      vertex 48.432 -64.918 20
      vertex 51.568 -64.918 20
    endloop
  endfacet
  facet normal 0 0 1
    outer loop
      vertex 51.5679 -64.9178 20
      vertex 51.568 -64.918 20
      vertex 54.635 -64.266 20
    endloop
  endfacet
  facet normal 0 0 1
    outer loop
      vertex 54.6353 -64.2658 20
      vertex 54.635 -64.266 20
      vertex 54.8977 -64.149 20
    endloop
  endfacet
  facet normal 0 0 1
    outer loop
      vertex 51.5679 -64.9178 20
      vertex 48.4321 -64.9178 20
      vertex 51.568 -64.918 20
    endloop
  endfacet
  facet normal 0 0 1
    outer loop
      vertex 54.6353 -64.2658 20
      vertex 51.5679 -64.9178 20
      vertex 54.635 -64.266 20
    endloop
  endfacet
  facet normal 0 0 1
    outer loop
      vertex 48.4321 -64.9178 20
      vertex 45.3647 -64.2658 20
      vertex 48.432 -64.918 20
    endloop
  endfacet
  facet normal 0.207911 -0.978148 0
    outer loop
      vertex 51.5679 -64.9178 70
      vertex 51.5679 -64.9178 20
      vertex 54.6353 -64.2658 20
    endloop
  endfacet
  facet normal 0.207911 -0.978148 0
    outer loop
      vertex 54.6353 -64.2658 70
      vertex 51.5679 -64.9178 70
      vertex 54.6353 -64.2658 20
    endloop
  endfacet
  facet normal 0 0 1
    outer loop
      vertex -14.6722 53.1187 70
      vertex -15 50 70
      vertex -14.6722 46.8813 70
    endloop
  endfacet
  facet normal 0 0 1
    outer loop
      vertex -12.1353 41.1832 70
      vertex -14.6722 53.1187 70
      vertex -13.7032 43.8989 70
    endloop
  endfacet
  facet normal 0 0 1
    outer loop
      vertex -13.7032 43.8989 70
      vertex -14.6722 53.1187 70
      vertex -14.6722 46.8813 70
    endloop
  endfacet
  facet normal 0 0 1
    outer loop
      vertex -10.037 38.8528 70
      vertex -14.6722 53.1187 70
      vertex -12.1353 41.1832 70
    endloop
  endfacet
  facet normal 0 0 1
    outer loop
      vertex -7.5 37.0096 70
      vertex -14.6722 53.1187 70
      vertex -10.037 38.8528 70
    endloop
  endfacet
  facet normal 0 0 1
    outer loop
      vertex -4.63525 35.7342 70
      vertex -14.6722 53.1187 70
      vertex -7.5 37.0096 70
    endloop
  endfacet
  facet normal 0 0 1
    outer loop
      vertex -1.56793 35.0822 70
      vertex -14.6722 53.1187 70
      vertex -4.63525 35.7342 70
    endloop
  endfacet
  facet normal 0 0 1
    outer loop
      vertex -1 35.0822 70
      vertex -14.6722 53.1187 70
      vertex -1.56793 35.0822 70
    endloop
  endfacet
  facet normal 0 0 1
    outer loop
      vertex -1 64.9178 70
      vertex -14.6722 53.1187 70
      vertex -1 35.0822 70
    endloop
  endfacet
  facet normal 0 0 1
    outer loop
      vertex -1.56793 64.9178 70
      vertex -14.6722 53.1187 70
      vertex -1 64.9178 70
    endloop
  endfacet
  facet normal 0 0 1
    outer loop
      vertex -4.63525 64.2658 70
      vertex -14.6722 53.1187 70
      vertex -1.56793 64.9178 70
    endloop
  endfacet
  facet normal 0 0 1
    outer loop
      vertex -7.5 62.9904 70
      vertex -14.6722 53.1187 70
      vertex -4.63525 64.2658 70
    endloop
  endfacet
  facet normal 0 0 1
    outer loop
      vertex -10.037 61.1472 70
      vertex -14.6722 53.1187 70
      vertex -7.5 62.9904 70
    endloop
  endfacet
  facet normal 0 0 1
    outer loop
      vertex -12.1353 58.8168 70
      vertex -14.6722 53.1187 70
      vertex -10.037 61.1472 70
    endloop
  endfacet
  facet normal 0 0 1
    outer loop
      vertex -13.7032 56.101 70
      vertex -14.6722 53.1187 70
      vertex -12.1353 58.8168 70
    endloop
  endfacet
  facet normal 0 0 1
    outer loop
      vertex -58.9472 -49.0269 70
      vertex -58.9472 -50.9731 70
      vertex -58.5289 -52.8737 70
    endloop
  endfacet
  facet normal 0 0 1
    outer loop
      vertex -56.534 -56.1893 70
      vertex -58.9472 -49.0269 70
      vertex -57.7117 -54.64 70
    endloop
  endfacet
  facet normal 0 0 1
    outer loop
      vertex -57.7117 -54.64 70
      vertex -58.9472 -49.0269 70
      vertex -58.5289 -52.8737 70
    endloop
  endfacet
  facet normal 0 0 1
    outer loop
      vertex -55.0507 -57.4492 70
      vertex -58.9472 -49.0269 70
      vertex -56.534 -56.1893 70
    endloop
  endfacet
  facet normal 0 0 1
    outer loop
      vertex -53.3312 -58.3608 70
      vertex -58.9472 -49.0269 70
      vertex -55.0507 -57.4492 70
    endloop
  endfacet
  facet normal 0 0 1
    outer loop
      vertex -51.456 -58.8814 70
      vertex -58.9472 -49.0269 70
      vertex -53.3312 -58.3608 70
    endloop
  endfacet
  facet normal 0 0 1
    outer loop
      vertex -49.5127 -58.9868 70
      vertex -58.9472 -49.0269 70
      vertex -51.456 -58.8814 70
    endloop
  endfacet
  facet normal 0 0 1
    outer loop
      vertex -47.5922 -58.6719 70
      vertex -58.9472 -49.0269 70
      vertex -49.5127 -58.9868 70
    endloop
  endfacet
  facet normal 0 0 1
    outer loop
      vertex -45.7843 -57.9516 70
      vertex -58.9472 -49.0269 70
      vertex -47.5922 -58.6719 70
    endloop
  endfacet
  facet normal 0 0 1
    outer loop
      vertex -51.4184 -53.7401 70
      vertex -58.9472 -49.0269 70
      vertex -45.7843 -57.9516 70
    endloop
  endfacet
  facet normal 0 0 1
    outer loop
      vertex -46.4582 -48.1411 70
      vertex -46 -50 70
      vertex -41 -50 70
    endloop
  endfacet
  facet normal 0 0 1
    outer loop
      vertex -45.7843 -42.0484 70
      vertex -58.9472 -49.0269 70
      vertex -44.1735 -43.1405 70
    endloop
  endfacet
  facet normal 0 0 1
    outer loop
      vertex -47.5922 -41.328 70
      vertex -58.9472 -49.0269 70
      vertex -45.7843 -42.0484 70
    endloop
  endfacet
  facet normal 0 0 1
    outer loop
      vertex -49.5127 -41.0132 70
      vertex -58.9472 -49.0269 70
      vertex -47.5922 -41.328 70
    endloop
  endfacet
  facet normal 0 0 1
    outer loop
      vertex -51.456 -41.1186 70
      vertex -58.9472 -49.0269 70
      vertex -49.5127 -41.0132 70
    endloop
  endfacet
  facet normal 0 0 1
    outer loop
      vertex -53.3312 -41.6392 70
      vertex -58.9472 -49.0269 70
      vertex -51.456 -41.1186 70
    endloop
  endfacet
  facet normal 0 0 1
    outer loop
      vertex -55.0507 -42.5508 70
      vertex -58.9472 -49.0269 70
      vertex -53.3312 -41.6392 70
    endloop
  endfacet
  facet normal 0 0 1
    outer loop
      vertex -56.534 -43.8107 70
      vertex -58.9472 -49.0269 70
      vertex -55.0507 -42.5508 70
    endloop
  endfacet
  facet normal 0 0 1
    outer loop
      vertex -57.7117 -45.36 70
      vertex -58.9472 -49.0269 70
      vertex -56.534 -43.8107 70
    endloop
  endfacet
  facet normal 0 0 1
    outer loop
      vertex -58.5289 -47.1263 70
      vertex -58.9472 -49.0269 70
      vertex -57.7117 -45.36 70
    endloop
  endfacet
  facet normal 0 0 1
    outer loop
      vertex -49.5179 -53.9708 70
      vertex -51.4184 -53.7401 70
      vertex -44.1735 -56.8595 70
    endloop
  endfacet
  facet normal 0 0 1
    outer loop
      vertex -53.8838 -49.0427 70
      vertex -52.994 -47.3475 70
      vertex -58.9472 -49.0269 70
    endloop
  endfacet
  facet normal 0 0 1
    outer loop
      vertex -46 -50 70
      vertex -46.4582 -51.8589 70
      vertex -41.2104 -51.9347 70
    endloop
  endfacet
  facet normal 0 0 1
    outer loop
      vertex -47.7277 -46.7081 70
      vertex -46.4582 -48.1411 70
      vertex -41.8318 -46.221 70
    endloop
  endfacet
  facet normal 0 0 1
    outer loop
      vertex -51.4184 -46.2599 70
      vertex -58.9472 -49.0269 70
      vertex -52.994 -47.3475 70
    endloop
  endfacet
  facet normal 0 0 1
    outer loop
      vertex -49.5179 -46.0292 70
      vertex -47.7277 -46.7081 70
      vertex -42.8352 -44.5534 70
    endloop
  endfacet
  facet normal 0 0 1
    outer loop
      vertex -44.1735 -43.1405 70
      vertex -58.9472 -49.0269 70
      vertex -51.4184 -46.2599 70
    endloop
  endfacet
  facet normal 0 0 1
    outer loop
      vertex -44.1735 -43.1405 70
      vertex -49.5179 -46.0292 70
      vertex -42.8352 -44.5534 70
    endloop
  endfacet
  facet normal 0 0 1
    outer loop
      vertex -42.8352 -44.5534 70
      vertex -47.7277 -46.7081 70
      vertex -41.8318 -46.221 70
    endloop
  endfacet
  facet normal 0 0 1
    outer loop
      vertex -51.4184 -46.2599 70
      vertex -49.5179 -46.0292 70
      vertex -44.1735 -43.1405 70
    endloop
  endfacet
  facet normal 0 0 1
    outer loop
      vertex -41.8318 -46.221 70
      vertex -46.4582 -48.1411 70
      vertex -41.2104 -48.0653 70
    endloop
  endfacet
  facet normal 0 0 1
    outer loop
      vertex -41 -50 70
      vertex -46 -50 70
      vertex -41.2104 -51.9347 70
    endloop
  endfacet
  facet normal 0 0 1
    outer loop
      vertex -46.4582 -48.1411 70
      vertex -41 -50 70
      vertex -41.2104 -48.0653 70
    endloop
  endfacet
  facet normal 0 0 1
    outer loop
      vertex -41.2104 -51.9347 70
      vertex -46.4582 -51.8589 70
      vertex -41.8318 -53.779 70
    endloop
  endfacet
  facet normal 0 0 1
    outer loop
      vertex -46.4582 -51.8589 70
      vertex -47.7277 -53.2919 70
      vertex -41.8318 -53.779 70
    endloop
  endfacet
  facet normal 0 0 1
    outer loop
      vertex -41.8318 -53.779 70
      vertex -47.7277 -53.2919 70
      vertex -42.8352 -55.4466 70
    endloop
  endfacet
  facet normal 0 0 1
    outer loop
      vertex -42.8352 -55.4466 70
      vertex -49.5179 -53.9708 70
      vertex -44.1735 -56.8595 70
    endloop
  endfacet
  facet normal 0 0 1
    outer loop
      vertex -44.1735 -56.8595 70
      vertex -51.4184 -53.7401 70
      vertex -45.7843 -57.9516 70
    endloop
  endfacet
  facet normal 0 0 1
    outer loop
      vertex -52.994 -52.6525 70
      vertex -58.9472 -49.0269 70
      vertex -51.4184 -53.7401 70
    endloop
  endfacet
  facet normal 0 0 1
    outer loop
      vertex -52.994 -52.6525 70
      vertex -53.8838 -50.9573 70
      vertex -58.9472 -49.0269 70
    endloop
  endfacet
  facet normal 0 0 1
    outer loop
      vertex -47.7277 -53.2919 70
      vertex -49.5179 -53.9708 70
      vertex -42.8352 -55.4466 70
    endloop
  endfacet
  facet normal 0 0 1
    outer loop
      vertex -53.8838 -50.9573 70
      vertex -53.8838 -49.0427 70
      vertex -58.9472 -49.0269 70
    endloop
  endfacet
  facet normal 0 -1 0
    outer loop
      vertex 48.4321 -64.9178 70
      vertex 48.4321 -64.9178 20
      vertex 51.5679 -64.9178 20
    endloop
  endfacet
  facet normal 0 -1 0
    outer loop
      vertex 51.5679 -64.9178 70
      vertex 48.4321 -64.9178 70
      vertex 51.5679 -64.9178 20
    endloop
  endfacet
  facet normal 0.994522 0.104528 0
    outer loop
      vertex 40 -50 70
      vertex 40.2185 -52.0791 70
      vertex 40.2185 -52.0791 20
    endloop
  endfacet
  facet normal 0.994522 0.104528 0
    outer loop
      vertex 40 -50 20
      vertex 40 -50 70
      vertex 40.2185 -52.0791 20
    endloop
  endfacet
  facet normal 0.951057 0.309017 0
    outer loop
      vertex 40.2185 -52.0791 70
      vertex 40.8645 -54.0674 70
      vertex 40.8645 -54.0674 20
    endloop
  endfacet
  facet normal 0.951057 0.309017 0
    outer loop
      vertex 40.2185 -52.0791 20
      vertex 40.2185 -52.0791 70
      vertex 40.8645 -54.0674 20
    endloop
  endfacet
  facet normal 0.866025 0.5 0
    outer loop
      vertex 40.8645 -54.0674 70
      vertex 41.9098 -55.8779 70
      vertex 41.9098 -55.8779 20
    endloop
  endfacet
  facet normal 0.866025 0.5 0
    outer loop
      vertex 40.8645 -54.0674 20
      vertex 40.8645 -54.0674 70
      vertex 41.9098 -55.8779 20
    endloop
  endfacet
  facet normal 0.743145 0.669131 0
    outer loop
      vertex 41.9098 -55.8779 70
      vertex 43.3087 -57.4314 70
      vertex 43.3087 -57.4314 20
    endloop
  endfacet
  facet normal 0.743145 0.669131 0
    outer loop
      vertex 41.9098 -55.8779 20
      vertex 41.9098 -55.8779 70
      vertex 43.3087 -57.4314 20
    endloop
  endfacet
  facet normal 0.587785 0.809017 0
    outer loop
      vertex 45 -58.6603 70
      vertex 45 -58.6603 20
      vertex 43.3087 -57.4314 70
    endloop
  endfacet
  facet normal 0.587785 0.809017 0
    outer loop
      vertex 43.3087 -57.4314 70
      vertex 45 -58.6603 20
      vertex 43.3087 -57.4314 20
    endloop
  endfacet
  facet normal 0.406737 0.913545 0
    outer loop
      vertex 46.9098 -59.5106 70
      vertex 46.9098 -59.5106 20
      vertex 45 -58.6603 70
    endloop
  endfacet
  facet normal 0.406737 0.913545 0
    outer loop
      vertex 45 -58.6603 70
      vertex 46.9098 -59.5106 20
      vertex 45 -58.6603 20
    endloop
  endfacet
  facet normal 0.207912 0.978148 0
    outer loop
      vertex 48.9547 -59.9452 70
      vertex 48.9547 -59.9452 20
      vertex 46.9098 -59.5106 70
    endloop
  endfacet
  facet normal 0.207912 0.978148 0
    outer loop
      vertex 46.9098 -59.5106 70
      vertex 48.9547 -59.9452 20
      vertex 46.9098 -59.5106 20
    endloop
  endfacet
  facet normal 0 1 0
    outer loop
      vertex 51.0453 -59.9452 70
      vertex 51.0453 -59.9452 20
      vertex 48.9547 -59.9452 70
    endloop
  endfacet
  facet normal 0 1 0
    outer loop
      vertex 48.9547 -59.9452 70
      vertex 51.0453 -59.9452 20
      vertex 48.9547 -59.9452 20
    endloop
  endfacet
  facet normal -0.207912 0.978148 0
    outer loop
      vertex 53.0902 -59.5106 70
      vertex 53.0902 -59.5106 20
      vertex 51.0453 -59.9452 70
    endloop
  endfacet
  facet normal -0.207912 0.978148 0
    outer loop
      vertex 51.0453 -59.9452 70
      vertex 53.0902 -59.5106 20
      vertex 51.0453 -59.9452 20
    endloop
  endfacet
  facet normal -0.406737 0.913545 0
    outer loop
      vertex 55 -58.6603 70
      vertex 55 -58.6603 20
      vertex 53.0902 -59.5106 70
    endloop
  endfacet
  facet normal -0.406737 0.913545 0
    outer loop
      vertex 53.0902 -59.5106 70
      vertex 55 -58.6603 20
      vertex 53.0902 -59.5106 20
    endloop
  endfacet
  facet normal -0.587785 0.809017 0
    outer loop
      vertex 56.6913 -57.4314 70
      vertex 56.6913 -57.4314 20
      vertex 55 -58.6603 70
    endloop
  endfacet
  facet normal -0.587785 0.809017 0
    outer loop
      vertex 55 -58.6603 70
      vertex 56.6913 -57.4314 20
      vertex 55 -58.6603 20
    endloop
  endfacet
  facet normal -0.743145 0.669131 0
    outer loop
      vertex 58.0902 -55.8779 70
      vertex 58.0902 -55.8779 20
      vertex 56.6913 -57.4314 70
    endloop
  endfacet
  facet normal -0.743145 0.669131 0
    outer loop
      vertex 56.6913 -57.4314 70
      vertex 58.0902 -55.8779 20
      vertex 56.6913 -57.4314 20
    endloop
  endfacet
  facet normal -0.866025 0.5 0
    outer loop
      vertex 59.1355 -54.0674 70
      vertex 59.1355 -54.0674 20
      vertex 58.0902 -55.8779 70
    endloop
  endfacet
  facet normal -0.866025 0.5 0
    outer loop
      vertex 58.0902 -55.8779 70
      vertex 59.1355 -54.0674 20
      vertex 58.0902 -55.8779 20
    endloop
  endfacet
  facet normal -0.951057 0.309017 0
    outer loop
      vertex 59.7815 -52.0791 70
      vertex 59.7815 -52.0791 20
      vertex 59.1355 -54.0674 70
    endloop
  endfacet
  facet normal -0.951057 0.309017 0
    outer loop
      vertex 59.1355 -54.0674 70
      vertex 59.7815 -52.0791 20
      vertex 59.1355 -54.0674 20
    endloop
  endfacet
  facet normal -0.994522 0.104528 0
    outer loop
      vertex 60 -50 70
      vertex 60 -50 20
      vertex 59.7815 -52.0791 70
    endloop
  endfacet
  facet normal -0.994522 0.104528 0
    outer loop
      vertex 59.7815 -52.0791 70
      vertex 60 -50 20
      vertex 59.7815 -52.0791 20
    endloop
  endfacet
  facet normal -0.994522 -0.104528 0
    outer loop
      vertex 60 -50 70
      vertex 59.7815 -47.9209 70
      vertex 60 -50 20
    endloop
  endfacet
  facet normal -0.994522 -0.104528 0
    outer loop
      vertex 60 -50 20
      vertex 59.7815 -47.9209 70
      vertex 59.7815 -47.9209 20
    endloop
  endfacet
  facet normal -0.951057 -0.309017 0
    outer loop
      vertex 59.7815 -47.9209 70
      vertex 59.1355 -45.9326 70
      vertex 59.7815 -47.9209 20
    endloop
  endfacet
  facet normal -0.951057 -0.309017 0
    outer loop
      vertex 59.7815 -47.9209 20
      vertex 59.1355 -45.9326 70
      vertex 59.1355 -45.9326 20
    endloop
  endfacet
  facet normal -0.866025 -0.5 0
    outer loop
      vertex 59.1355 -45.9326 70
      vertex 58.0902 -44.1221 70
      vertex 59.1355 -45.9326 20
    endloop
  endfacet
  facet normal -0.866025 -0.5 0
    outer loop
      vertex 59.1355 -45.9326 20
      vertex 58.0902 -44.1221 70
      vertex 58.0902 -44.1221 20
    endloop
  endfacet
  facet normal -0.743145 -0.669131 0
    outer loop
      vertex 58.0902 -44.1221 70
      vertex 56.6913 -42.5686 70
      vertex 58.0902 -44.1221 20
    endloop
  endfacet
  facet normal -0.743145 -0.669131 0
    outer loop
      vertex 58.0902 -44.1221 20
      vertex 56.6913 -42.5686 70
      vertex 56.6913 -42.5686 20
    endloop
  endfacet
  facet normal -0.587785 -0.809017 0
    outer loop
      vertex 56.6913 -42.5686 20
      vertex 56.6913 -42.5686 70
      vertex 55 -41.3397 70
    endloop
  endfacet
  facet normal -0.587785 -0.809017 0
    outer loop
      vertex 55 -41.3397 20
      vertex 56.6913 -42.5686 20
      vertex 55 -41.3397 70
    endloop
  endfacet
  facet normal -0.406737 -0.913545 0
    outer loop
      vertex 55 -41.3397 20
      vertex 55 -41.3397 70
      vertex 53.0902 -40.4894 70
    endloop
  endfacet
  facet normal -0.406737 -0.913545 0
    outer loop
      vertex 53.0902 -40.4894 20
      vertex 55 -41.3397 20
      vertex 53.0902 -40.4894 70
    endloop
  endfacet
  facet normal -0.207912 -0.978148 0
    outer loop
      vertex 53.0902 -40.4894 20
      vertex 53.0902 -40.4894 70
      vertex 51.0453 -40.0548 70
    endloop
  endfacet
  facet normal -0.207912 -0.978148 0
    outer loop
      vertex 51.0453 -40.0548 20
      vertex 53.0902 -40.4894 20
      vertex 51.0453 -40.0548 70
    endloop
  endfacet
  facet normal 0 -1 0
    outer loop
      vertex 51.0453 -40.0548 20
      vertex 51.0453 -40.0548 70
      vertex 48.9547 -40.0548 70
    endloop
  endfacet
  facet normal 0 -1 0
    outer loop
      vertex 48.9547 -40.0548 20
      vertex 51.0453 -40.0548 20
      vertex 48.9547 -40.0548 70
    endloop
  endfacet
  facet normal 0.207912 -0.978148 0
    outer loop
      vertex 48.9547 -40.0548 20
      vertex 48.9547 -40.0548 70
      vertex 46.9098 -40.4894 70
    endloop
  endfacet
  facet normal 0.207912 -0.978148 0
    outer loop
      vertex 46.9098 -40.4894 20
      vertex 48.9547 -40.0548 20
      vertex 46.9098 -40.4894 70
    endloop
  endfacet
  facet normal 0.406737 -0.913545 0
    outer loop
      vertex 46.9098 -40.4894 20
      vertex 46.9098 -40.4894 70
      vertex 45 -41.3397 70
    endloop
  endfacet
  facet normal 0.406737 -0.913545 0
    outer loop
      vertex 45 -41.3397 20
      vertex 46.9098 -40.4894 20
      vertex 45 -41.3397 70
    endloop
  endfacet
  facet normal 0.587785 -0.809017 0
    outer loop
      vertex 45 -41.3397 20
      vertex 45 -41.3397 70
      vertex 43.3087 -42.5686 70
    endloop
  endfacet
  facet normal 0.587785 -0.809017 0
    outer loop
      vertex 43.3087 -42.5686 20
      vertex 45 -41.3397 20
      vertex 43.3087 -42.5686 70
    endloop
  endfacet
  facet normal 0.743145 -0.669131 0
    outer loop
      vertex 43.3087 -42.5686 20
      vertex 43.3087 -42.5686 70
      vertex 41.9098 -44.1221 70
    endloop
  endfacet
  facet normal 0.743145 -0.669131 0
    outer loop
      vertex 41.9098 -44.1221 20
      vertex 43.3087 -42.5686 20
      vertex 41.9098 -44.1221 70
    endloop
  endfacet
  facet normal 0.866025 -0.5 0
    outer loop
      vertex 41.9098 -44.1221 20
      vertex 41.9098 -44.1221 70
      vertex 40.8645 -45.9326 70
    endloop
  endfacet
  facet normal 0.866025 -0.5 0
    outer loop
      vertex 40.8645 -45.9326 20
      vertex 41.9098 -44.1221 20
      vertex 40.8645 -45.9326 70
    endloop
  endfacet
  facet normal 0.951057 -0.309017 0
    outer loop
      vertex 40.8645 -45.9326 20
      vertex 40.8645 -45.9326 70
      vertex 40.2185 -47.9209 70
    endloop
  endfacet
  facet normal 0.951057 -0.309017 0
    outer loop
      vertex 40.2185 -47.9209 20
      vertex 40.8645 -45.9326 20
      vertex 40.2185 -47.9209 70
    endloop
  endfacet
  facet normal 0.994522 -0.104528 0
    outer loop
      vertex 40.2185 -47.9209 20
      vertex 40.2185 -47.9209 70
      vertex 40 -50 70
    endloop
  endfacet
  facet normal 0.994522 -0.104528 0
    outer loop
      vertex 40 -50 20
      vertex 40.2185 -47.9209 20
      vertex 40 -50 70
    endloop
  endfacet
  facet normal 1 0 0
    outer loop
      vertex -53.8838 -49.0427 20
      vertex -53.8838 -49.0427 70
      vertex -53.8838 -50.9573 70
    endloop
  endfacet
  facet normal 1 0 0
    outer loop
      vertex -53.8838 -50.9573 20
      vertex -53.8838 -49.0427 20
      vertex -53.8838 -50.9573 70
    endloop
  endfacet
  facet normal 0.885456 0.464723 0
    outer loop
      vertex -53.8838 -50.9573 70
      vertex -52.994 -52.6525 70
      vertex -52.994 -52.6525 20
    endloop
  endfacet
  facet normal 0.885456 0.464723 0
    outer loop
      vertex -53.8838 -50.9573 20
      vertex -53.8838 -50.9573 70
      vertex -52.994 -52.6525 20
    endloop
  endfacet
  facet normal 0.568065 0.822984 0
    outer loop
      vertex -51.4184 -53.7401 70
      vertex -51.4184 -53.7401 20
      vertex -52.994 -52.6525 70
    endloop
  endfacet
  facet normal 0.568065 0.822984 0
    outer loop
      vertex -52.994 -52.6525 70
      vertex -51.4184 -53.7401 20
      vertex -52.994 -52.6525 20
    endloop
  endfacet
  facet normal 0.120536 0.992709 0
    outer loop
      vertex -49.5179 -53.9708 70
      vertex -49.5179 -53.9708 20
      vertex -51.4184 -53.7401 70
    endloop
  endfacet
  facet normal 0.120536 0.992709 0
    outer loop
      vertex -51.4184 -53.7401 70
      vertex -49.5179 -53.9708 20
      vertex -51.4184 -53.7401 20
    endloop
  endfacet
  facet normal -0.354605 0.935016 0
    outer loop
      vertex -47.7277 -53.2919 70
      vertex -47.7277 -53.2919 20
      vertex -49.5179 -53.9708 70
    endloop
  endfacet
  facet normal -0.354605 0.935016 0
    outer loop
      vertex -49.5179 -53.9708 70
      vertex -47.7277 -53.2919 20
      vertex -49.5179 -53.9708 20
    endloop
  endfacet
  facet normal -0.748511 0.663123 0
    outer loop
      vertex -46.4582 -51.8589 70
      vertex -46.4582 -51.8589 20
      vertex -47.7277 -53.2919 70
    endloop
  endfacet
  facet normal -0.748511 0.663123 0
    outer loop
      vertex -47.7277 -53.2919 70
      vertex -46.4582 -51.8589 20
      vertex -47.7277 -53.2919 20
    endloop
  endfacet
  facet normal -0.970942 0.239316 0
    outer loop
      vertex -46 -50 70
      vertex -46 -50 20
      vertex -46.4582 -51.8589 70
    endloop
  endfacet
  facet normal -0.970942 0.239316 0
    outer loop
      vertex -46.4582 -51.8589 70
      vertex -46 -50 20
      vertex -46.4582 -51.8589 20
    endloop
  endfacet
  facet normal -0.970942 -0.239316 0
    outer loop
      vertex -46 -50 70
      vertex -46.4582 -48.1411 70
      vertex -46 -50 20
    endloop
  endfacet
  facet normal -0.970942 -0.239316 0
    outer loop
      vertex -46 -50 20
      vertex -46.4582 -48.1411 70
      vertex -46.4582 -48.1411 20
    endloop
  endfacet
  facet normal -0.748511 -0.663123 0
    outer loop
      vertex -46.4582 -48.1411 70
      vertex -47.7277 -46.7081 70
      vertex -46.4582 -48.1411 20
    endloop
  endfacet
  facet normal -0.748511 -0.663123 0
    outer loop
      vertex -46.4582 -48.1411 20
      vertex -47.7277 -46.7081 70
      vertex -47.7277 -46.7081 20
    endloop
  endfacet
  facet normal -0.354605 -0.935016 0
    outer loop
      vertex -47.7277 -46.7081 20
      vertex -47.7277 -46.7081 70
      vertex -49.5179 -46.0292 70
    endloop
  endfacet
  facet normal -0.354605 -0.935016 0
    outer loop
      vertex -49.5179 -46.0292 20
      vertex -47.7277 -46.7081 20
      vertex -49.5179 -46.0292 70
    endloop
  endfacet
  facet normal 0.120536 -0.992709 0
    outer loop
      vertex -49.5179 -46.0292 20
      vertex -49.5179 -46.0292 70
      vertex -51.4184 -46.2599 70
    endloop
  endfacet
  facet normal 0.120536 -0.992709 0
    outer loop
      vertex -51.4184 -46.2599 20
      vertex -49.5179 -46.0292 20
      vertex -51.4184 -46.2599 70
    endloop
  endfacet
  facet normal 0.568065 -0.822984 0
    outer loop
      vertex -51.4184 -46.2599 20
      vertex -51.4184 -46.2599 70
      vertex -52.994 -47.3475 70
    endloop
  endfacet
  facet normal 0.568065 -0.822984 0
    outer loop
      vertex -52.994 -47.3475 20
      vertex -51.4184 -46.2599 20
      vertex -52.994 -47.3475 70
    endloop
  endfacet
  facet normal 0.885456 -0.464723 0
    outer loop
      vertex -52.994 -47.3475 20
      vertex -52.994 -47.3475 70
      vertex -53.8838 -49.0427 70
    endloop
  endfacet
  facet normal 0.885456 -0.464723 0
    outer loop
      vertex -53.8838 -49.0427 20
      vertex -52.994 -47.3475 20
      vertex -53.8838 -49.0427 70
    endloop
  endfacet
  facet normal 0 0 1
    outer loop
      vertex 40.2185 -47.9209 20
      vertex 40 -50 20
      vertex 40.2185 -52.0791 20
    endloop
  endfacet
  facet normal 0 0 1
    outer loop
      vertex 41.9098 -55.8779 20
      vertex 40.2185 -47.9209 20
      vertex 40.8645 -54.0674 20
    endloop
  endfacet
  facet normal 0 0 1
    outer loop
      vertex 40.8645 -54.0674 20
      vertex 40.2185 -47.9209 20
      vertex 40.2185 -52.0791 20
    endloop
  endfacet
  facet normal 0 0 1
    outer loop
      vertex 43.3087 -57.4314 20
      vertex 40.2185 -47.9209 20
      vertex 41.9098 -55.8779 20
    endloop
  endfacet
  facet normal 0 0 1
    outer loop
      vertex 45 -58.6603 20
      vertex 40.2185 -47.9209 20
      vertex 43.3087 -57.4314 20
    endloop
  endfacet
  facet normal 0 0 1
    outer loop
      vertex 46.9098 -59.5106 20
      vertex 40.2185 -47.9209 20
      vertex 45 -58.6603 20
    endloop
  endfacet
  facet normal 0 0 1
    outer loop
      vertex 48.9547 -59.9452 20
      vertex 40.2185 -47.9209 20
      vertex 46.9098 -59.5106 20
    endloop
  endfacet
  facet normal 0 0 1
    outer loop
      vertex 51.0453 -59.9452 20
      vertex 40.2185 -47.9209 20
      vertex 48.9547 -59.9452 20
    endloop
  endfacet
  facet normal 0 0 1
    outer loop
      vertex 53.0902 -59.5106 20
      vertex 40.2185 -47.9209 20
      vertex 51.0453 -59.9452 20
    endloop
  endfacet
  facet normal 0 0 1
    outer loop
      vertex 55 -58.6603 20
      vertex 40.2185 -47.9209 20
      vertex 53.0902 -59.5106 20
    endloop
  endfacet
  facet normal 0 0 1
    outer loop
      vertex 56.6913 -57.4314 20
      vertex 40.2185 -47.9209 20
      vertex 55 -58.6603 20
    endloop
  endfacet
  facet normal 0 0 1
    outer loop
      vertex 58.0902 -55.8779 20
      vertex 40.2185 -47.9209 20
      vertex 56.6913 -57.4314 20
    endloop
  endfacet
  facet normal 0 0 1
    outer loop
      vertex 59.1355 -54.0674 20
      vertex 40.2185 -47.9209 20
      vertex 58.0902 -55.8779 20
    endloop
  endfacet
  facet normal 0 0 1
    outer loop
      vertex 59.7815 -52.0791 20
      vertex 40.2185 -47.9209 20
      vertex 59.1355 -54.0674 20
    endloop
  endfacet
  facet normal 0 0 1
    outer loop
      vertex 60 -50 20
      vertex 40.2185 -47.9209 20
      vertex 59.7815 -52.0791 20
    endloop
  endfacet
  facet normal 0 0 1
    outer loop
      vertex 59.7815 -47.9209 20
      vertex 40.2185 -47.9209 20
      vertex 60 -50 20
    endloop
  endfacet
  facet normal 0 0 1
    outer loop
      vertex 59.1355 -45.9326 20
      vertex 40.2185 -47.9209 20
      vertex 59.7815 -47.9209 20
    endloop
  endfacet
  facet normal 0 0 1
    outer loop
      vertex 58.0902 -44.1221 20
      vertex 40.2185 -47.9209 20
      vertex 59.1355 -45.9326 20
    endloop
  endfacet
  facet normal 0 0 1
    outer loop
      vertex 56.6913 -42.5686 20
      vertex 40.2185 -47.9209 20
      vertex 58.0902 -44.1221 20
    endloop
  endfacet
  facet normal 0 0 1
    outer loop
      vertex 55 -41.3397 20
      vertex 40.2185 -47.9209 20
      vertex 56.6913 -42.5686 20
    endloop
  endfacet
  facet normal 0 0 1
    outer loop
      vertex 53.0902 -40.4894 20
      vertex 40.2185 -47.9209 20
      vertex 55 -41.3397 20
    endloop
  endfacet
  facet normal 0 0 1
    outer loop
      vertex 51.0453 -40.0548 20
      vertex 40.2185 -47.9209 20
      vertex 53.0902 -40.4894 20
    endloop
  endfacet
  facet normal 0 0 1
    outer loop
      vertex 48.9547 -40.0548 20
      vertex 40.2185 -47.9209 20
      vertex 51.0453 -40.0548 20
    endloop
  endfacet
  facet normal 0 0 1
    outer loop
      vertex 46.9098 -40.4894 20
      vertex 40.2185 -47.9209 20
      vertex 48.9547 -40.0548 20
    endloop
  endfacet
  facet normal 0 0 1
    outer loop
      vertex 45 -41.3397 20
      vertex 40.2185 -47.9209 20
      vertex 46.9098 -40.4894 20
    endloop
  endfacet
  facet normal 0 0 1
    outer loop
      vertex 43.3087 -42.5686 20
      vertex 40.2185 -47.9209 20
      vertex 45 -41.3397 20
    endloop
  endfacet
  facet normal 0 0 1
    outer loop
      vertex 41.9098 -44.1221 20
      vertex 40.2185 -47.9209 20
      vertex 43.3087 -42.5686 20
    endloop
  endfacet
  facet normal 0 0 1
    outer loop
      vertex 40.8645 -45.9326 20
      vertex 40.2185 -47.9209 20
      vertex 41.9098 -44.1221 20
    endloop
  endfacet
  facet normal 0 0 1
    outer loop
      vertex -53.8838 -49.0427 20
      vertex -53.8838 -50.9573 20
      vertex -52.994 -52.6525 20
    endloop
  endfacet
  facet normal 0 0 1
    outer loop
      vertex -49.5179 -53.9708 20
      vertex -53.8838 -49.0427 20
      vertex -51.4184 -53.7401 20
    endloop
  endfacet
  facet normal 0 0 1
    outer loop
      vertex -51.4184 -53.7401 20
      vertex -53.8838 -49.0427 20
      vertex -52.994 -52.6525 20
    endloop
  endfacet
  facet normal 0 0 1
    outer loop
      vertex -47.7277 -53.2919 20
      vertex -53.8838 -49.0427 20
      vertex -49.5179 -53.9708 20
    endloop
  endfacet
  facet normal 0 0 1
    outer loop
      vertex -46.4582 -51.8589 20
      vertex -53.8838 -49.0427 20
      vertex -47.7277 -53.2919 20
    endloop
  endfacet
  facet normal 0 0 1
    outer loop
      vertex -46 -50 20
      vertex -53.8838 -49.0427 20
      vertex -46.4582 -51.8589 20
    endloop
  endfacet
  facet normal 0 0 1
    outer loop
      vertex -46.4582 -48.1411 20
      vertex -53.8838 -49.0427 20
      vertex -46 -50 20
    endloop
  endfacet
  facet normal 0 0 1
    outer loop
      vertex -47.7277 -46.7081 20
      vertex -53.8838 -49.0427 20
      vertex -46.4582 -48.1411 20
    endloop
  endfacet
  facet normal 0 0 1
    outer loop
      vertex -49.5179 -46.0292 20
      vertex -53.8838 -49.0427 20
      vertex -47.7277 -46.7081 20
    endloop
  endfacet
  facet normal 0 0 1
    outer loop
      vertex -51.4184 -46.2599 20
      vertex -53.8838 -49.0427 20
      vertex -49.5179 -46.0292 20
    endloop
  endfacet
  facet normal 0 0 1
    outer loop
      vertex -52.994 -47.3475 20
      vertex -53.8838 -49.0427 20
      vertex -51.4184 -46.2599 20
    endloop
  endfacet
endsolid OpenSCAD_Model
